<?xml version="1.0" encoding="UTF-8" standalone="no"?>
<!-- Created with Inkscape (http://www.inkscape.org/) -->

<svg
   width="226.25468mm"
   height="215.57016mm"
   viewBox="0 0 226.25468 215.57016"
   version="1.1"
   id="svg3241"
   inkscape:version="1.2.1 (0f2f062aeb, 2022-09-21, custom)"
   sodipodi:docname="logo.svg"
   xmlns:inkscape="http://www.inkscape.org/namespaces/inkscape"
   xmlns:sodipodi="http://sodipodi.sourceforge.net/DTD/sodipodi-0.dtd"
   xmlns="http://www.w3.org/2000/svg"
   xmlns:svg="http://www.w3.org/2000/svg">
  <sodipodi:namedview
     id="namedview3243"
     pagecolor="#ffffff"
     bordercolor="#666666"
     borderopacity="1.0"
     inkscape:showpageshadow="2"
     inkscape:pageopacity="0.0"
     inkscape:pagecheckerboard="0"
     inkscape:deskcolor="#d1d1d1"
     inkscape:document-units="mm"
     showgrid="false"
     inkscape:zoom="0.57848045"
     inkscape:cx="501.31339"
     inkscape:cy="472.79039"
     inkscape:window-width="1848"
     inkscape:window-height="1016"
     inkscape:window-x="72"
     inkscape:window-y="27"
     inkscape:window-maximized="1"
     inkscape:current-layer="layer1" />
  <defs
     id="defs3238">
    <rect
       x="-115.9248"
       y="1197.6426"
       width="1066.0822"
       height="266.94397"
       id="rect3761" />
    <rect
       x="-115.9248"
       y="1197.6426"
       width="1066.0822"
       height="266.94397"
       id="rect5201" />
  </defs>
  <g
     inkscape:label="Layer 1"
     inkscape:groupmode="layer"
     id="layer1"
     transform="translate(23.698172,-35.056379)">
    <text
       xml:space="preserve"
       transform="matrix(0.24265463,0,0,0.24265463,82.483987,-47.546216)"
       id="text5199"
       style="font-style:normal;font-variant:normal;font-weight:normal;font-stretch:normal;font-size:39.9999px;line-height:1;font-family:'Futura Md BT';-inkscape-font-specification:'Futura Md BT, Normal';font-variant-ligatures:normal;font-variant-caps:normal;font-variant-numeric:normal;font-variant-east-asian:normal;letter-spacing:0px;word-spacing:0px;white-space:pre;shape-inside:url(#rect5201)"><tspan
         x="-115.92383"
         y="1228.0331"
         id="tspan5310"><tspan
           style="fill:#211c1d"
           id="tspan5308">RACHELBLOT.FR</tspan></tspan></text>
    <text
       xml:space="preserve"
       transform="matrix(0.80141916,0,0,0.80141916,72.762634,-748.68383)"
       id="text3759"
       style="font-style:normal;font-variant:normal;font-weight:normal;font-stretch:normal;font-size:39.9999px;line-height:1;font-family:'Futura Md BT';-inkscape-font-specification:'Futura Md BT, Normal';font-variant-ligatures:normal;font-variant-caps:normal;font-variant-numeric:normal;font-variant-east-asian:normal;letter-spacing:1.65072px;word-spacing:1.65072px;white-space:pre;shape-inside:url(#rect3761)"><tspan
         x="-115.92383"
         y="1228.0331"
         id="tspan5318"><tspan
           style="fill:#1f6534"
           id="tspan5312">RACHEL</tspan><tspan
           dx="-1.6507137"
           id="tspan5314"> </tspan><tspan
           dx="1.6507164"
           style="fill:#211c1d"
           id="tspan5316">BLOT</tspan></tspan></text>
    <path
       d="m 47.743194,247.66327 h -61.365699 v -2.64937 h 61.365699 v 2.64937"
       style="fill:#552200;fill-opacity:1;fill-rule:nonzero;stroke:none;stroke-width:0.0352778"
       id="path2492" />
    <path
       d="m 192.44206,247.66327 h -61.36569 v -2.64937 h 61.36569 v 2.64937"
       style="fill:#552200;fill-opacity:1;fill-rule:nonzero;stroke:none;stroke-width:0.0352778"
       id="path2494" />
    <path
       d="m 0.48155167,154.56168 c 0,0 2.76225013,-6.67456 8.05391713,-8.39964 5.2951952,-1.72509 8.1703342,2.99155 8.1703342,4.14161 0,0 -6.9038619,-1.60867 -11.2783066,1.72861 0,0 5.2951946,-2.53294 11.5111396,-0.34572 0,0 -2.991556,4.25803 -8.1738616,3.22086 -5.1787781,-1.03364 -5.4080837,-1.26647 -8.28322273,-0.34572"
       style="fill:#1f6534;fill-opacity:1;fill-rule:nonzero;stroke:none;stroke-width:0.0352778"
       id="path2496" />
    <path
       d="m -19.566811,164.93334 c 0,0 2.76225,-6.67808 8.057445,-8.40316 5.2916673,-1.72509 8.1703341,2.99155 8.1703341,4.14161 0,0 -6.9038611,-1.60867 -11.2783061,1.72861 0,0 5.2951946,-2.53295 11.5076117,-0.34572 0,0 -2.9915558,4.25803 -8.1703337,3.22086 -5.178778,-1.03364 -5.408084,-1.26295 -8.286751,-0.3422"
       style="fill:#1f6534;fill-opacity:1;fill-rule:nonzero;stroke:none;stroke-width:0.0352778"
       id="path2498" />
    <path
       d="m -10.969616,112.53526 c 0,0 -2.374194,7.86341 1.0442226,13.19036 3.4148891,5.32694 9.34155612,3.24556 10.17058395,2.23308 0,0 -7.23547265,-3.54894 -8.68186165,-9.63436 0,0 2.8363335,6.03956 9.8777784,8.58309 0,0 0.4303889,-5.89845 -4.8718614,-8.71362 -5.3022504,-2.81516 -5.6691393,-2.77636 -7.5388619,-5.65855"
       style="fill:#1f6534;fill-opacity:1;fill-rule:nonzero;stroke:none;stroke-width:0.0352778"
       id="path2500" />
    <path
       d="m -15.785033,135.15537 c 0,0 0.959556,6.65692 5.341056,9.42975 4.3815005,2.77283 8.0609729,-0.8255 8.3255563,-1.86619 0,0 -6.6004727,-0.13053 -9.7825283,-4.14514 0,0 4.1980557,3.49955 10.3081672,2.95275 0,0 -1.7250834,-4.52967 -6.6357504,-4.78367 -4.9106668,-0.254 -5.1717228,-0.0988 -7.5565008,-1.5875"
       style="fill:#1f6534;fill-opacity:1;fill-rule:nonzero;stroke:none;stroke-width:0.0352778"
       id="path2502" />
    <path
       d="m -3.6600597,94.222562 c 0,0 -6.0395559,5.549195 -5.8137781,11.863918 0.22225,6.31825 6.3746948,7.54592 7.6023615,7.09789 0,0 -4.4097225,-6.73453 -2.557639,-12.69647 0,0 -0.635,6.62869 4.11691692,12.40366 0,0 3.37255578,-4.85069 0.25047224,-9.9695 C -3.1838097,97.806784 -3.5189486,97.651562 -3.6600597,94.222562"
       style="fill:#1f6534;fill-opacity:1;fill-rule:nonzero;stroke:none;stroke-width:0.0352778"
       id="path2504" />
    <path
       d="m 7.0608576,81.970589 c 0,0 -6.0395559,5.545667 -5.8137781,11.863917 0.22225,6.314724 6.3746948,7.545914 7.6023616,7.094364 0,0 -4.4097225,-6.731003 -2.5576391,-12.696475 0,0 -0.635,6.632222 4.116917,12.403665 0,0 3.376084,-4.847165 0.250472,-9.965971 -3.1220833,-5.118805 -3.4572222,-5.274028 -3.5983334,-8.6995"
       style="fill:#1f6534;fill-opacity:1;fill-rule:nonzero;stroke:none;stroke-width:0.0352778"
       id="path2506" />
    <path
       d="m -20.170061,134.5874 c 0,0 -4.755444,6.68161 -3.224389,12.81289 1.531056,6.1348 7.803445,6.05719 8.911167,5.36222 0,0 -5.711472,-5.66914 -5.139972,-11.88861 0,0 0.758472,6.61811 6.607528,11.2783 0,0 2.289528,-5.44688 -1.827389,-9.80369 -4.120445,-4.35328 -4.480278,-4.43795 -5.326945,-7.76111"
       style="fill:#1f6534;fill-opacity:1;fill-rule:nonzero;stroke:none;stroke-width:0.0352778"
       id="path2508" />
    <path
       d="m 45.876999,139.69209 c 0,0 -0.525639,5.55625 2.469445,8.64659 2.991555,3.09386 6.660444,0.91016 7.076722,0.12347 0,0 -5.298722,-1.39347 -7.08025,-5.25286 0,0 2.702278,3.64066 7.732889,4.39208 0,0 -0.504472,-3.98992 -4.41325,-5.15056 -3.912306,-1.16416 -4.152195,-1.09008 -5.785556,-2.75872"
       style="fill:#1f6534;fill-opacity:1;fill-rule:nonzero;stroke:none;stroke-width:0.0352778"
       id="path2510" />
    <path
       d="m 40.694693,125.17529 c 0,0 -0.525639,5.55625 2.465917,8.64658 2.991556,3.09386 6.660445,0.91017 7.076723,0.12347 0,0 -5.298723,-1.39347 -7.080251,-5.25286 0,0 2.702278,3.64067 7.736417,4.39208 0,0 -0.504472,-3.98991 -4.416778,-5.15055 -3.912306,-1.16417 -4.152194,-1.09008 -5.782028,-2.75872"
       style="fill:#1f6534;fill-opacity:1;fill-rule:nonzero;stroke:none;stroke-width:0.0352778"
       id="path2512" />
    <path
       d="m 67.982056,97.90909 c 0,0 5.249334,6.30061 4.183945,12.53067 -1.061862,6.23358 -7.32014,6.62869 -8.477251,6.02191 0,0 5.266973,-6.08541 4.22275,-12.24139 0,0 -0.254,6.65339 -5.732639,11.74398 0,0 -2.695222,-5.25639 1.0795,-9.91306 3.77825,-4.65667 4.131028,-4.76603 4.723695,-8.14211"
       style="fill:#1f6534;fill-opacity:1;fill-rule:nonzero;stroke:none;stroke-width:0.0352778"
       id="path2514" />
    <path
       d="m 11.805719,69.644533 c 0,0 3.961695,-4.310945 8.470195,-4.152195 4.5085,0.15875 5.383389,4.550833 5.062361,5.425722 0,0 -4.804833,-3.146778 -9.062861,-1.823861 0,0 4.734278,-0.451555 8.854723,2.938639 0,0 -3.460751,2.409473 -7.115529,0.179917 -3.65125,-2.229556 -3.760611,-2.469445 -6.208889,-2.568222"
       style="fill:#1f6534;fill-opacity:1;fill-rule:nonzero;stroke:none;stroke-width:0.0352778"
       id="path2516" />
    <path
       d="m 26.357803,57.135032 c 0,0 3.958167,-4.310945 8.466668,-4.152195 4.5085,0.162278 5.386917,4.550834 5.065889,5.42925 0,0 -4.804834,-3.150305 -9.062862,-1.827389 0,0 4.734278,-0.451555 8.854723,2.942167 0,0 -3.464278,2.405945 -7.115528,0.176389 -3.651251,-2.229556 -3.76414,-2.469444 -6.20889,-2.568222"
       style="fill:#1f6534;fill-opacity:1;fill-rule:nonzero;stroke:none;stroke-width:0.0352778"
       id="path2518" />
    <path
       d="m 72.656362,38.261419 c 0,0 5.796139,-0.79375 9.168695,2.204862 3.369028,2.998611 1.245305,6.939139 0.437444,7.408333 0,0 -1.693333,-5.489222 -5.813778,-7.186083 0,0 3.933473,2.670528 4.942417,7.912806 0,0 -4.201583,-0.356306 -5.591528,-4.402667 -1.393472,-4.046362 -1.326445,-4.300362 -3.14325,-5.937251"
       style="fill:#1f6534;fill-opacity:1;fill-rule:nonzero;stroke:none;stroke-width:0.0352778"
       id="path2520" />
    <path
       d="m 79.704862,68.272227 c 0,0 1.464028,9.274528 7.630584,13.059834 6.170084,3.788834 11.235973,-1.30175 11.585223,-2.755195 0,0 -9.214556,-0.05997 -13.730112,-5.605639 0,0 5.923139,4.808362 14.442723,3.929945 0,0 -2.490611,-6.290028 -9.352139,-6.551084 -6.858001,-0.264583 -7.221362,-0.04233 -10.576279,-2.077861"
       style="fill:#1f6534;fill-opacity:1;fill-rule:nonzero;stroke:none;stroke-width:0.0352778"
       id="path2522" />
    <path
       d="m 80.265779,52.877004 c 0,0 5.782028,0.913694 8.142112,4.755444 2.360083,3.845278 -0.811389,7.00264 -1.718028,7.221362 0,0 -0.03881,-5.743223 -3.492501,-8.558389 0,0 2.995084,3.690055 2.448278,9.002889 0,0 -3.922889,-1.552222 -4.085167,-5.827889 -0.162277,-4.275667 -0.02469,-4.501445 -1.294694,-6.593417"
       style="fill:#1f6534;fill-opacity:1;fill-rule:nonzero;stroke:none;stroke-width:0.0352778"
       id="path2524" />
    <path
       d="m 107.26386,38.899947 c 0,0 6.38175,-1.527528 10.47398,1.449917 4.09222,2.973917 2.15547,7.605889 1.30527,8.219723 0,0 -2.49413,-5.940778 -7.2778,-7.380112 0,0 4.68136,2.547056 6.38528,8.283223 0,0 -4.72723,0.07055 -6.72395,-4.293306 -2.00025,-4.363861 -1.95086,-4.653139 -4.16278,-6.279445"
       style="fill:#1f6534;fill-opacity:1;fill-rule:nonzero;stroke:none;stroke-width:0.0352778"
       id="path2526" />
    <path
       d="m 83.878224,38.116781 c 0,0 5.235222,-3.958167 10.177639,-2.871612 4.942417,1.083028 5.023556,6.103056 4.494389,7.006167 0,0 -4.66725,-4.441472 -9.630834,-3.84175 0,0 5.312834,0.455083 9.175751,5.027084 0,0 -4.303889,1.957917 -7.884584,-1.234723 -3.580695,-3.196166 -3.654778,-3.481916 -6.332361,-4.085166"
       style="fill:#1f6534;fill-opacity:1;fill-rule:nonzero;stroke:none;stroke-width:0.0352778"
       id="path2528" />
    <path
       d="m 142.9932,50.090059 c 0,0 -6.81214,-5.150556 -13.23975,-3.739445 -6.42409,1.411112 -6.53345,7.941029 -5.842,9.115779 0,0 6.06778,-5.778501 12.52361,-4.995334 0,0 -6.91092,0.589139 -11.93447,6.536973 0,0 5.59858,2.547055 10.25525,-1.608667 4.65666,-4.155723 4.75191,-4.526139 8.23736,-5.309306"
       style="fill:#1f6534;fill-opacity:1;fill-rule:nonzero;stroke:none;stroke-width:0.0352778"
       id="path2530" />
    <path
       d="m 158.05328,57.237337 c 0,0 -6.80861,-5.147028 -13.23622,-3.739444 -6.42761,1.411111 -6.53344,7.941028 -5.84553,9.115778 0,0 6.07131,-5.7785 12.52361,-4.995334 0,0 -6.90738,0.589139 -11.93094,6.536973 0,0 5.59858,2.547056 10.25172,-1.608667 4.65667,-4.152195 4.75545,-4.526139 8.23736,-5.309306"
       style="fill:#1f6534;fill-opacity:1;fill-rule:nonzero;stroke:none;stroke-width:0.0352778"
       id="path2532" />
    <path
       d="m 170.99317,67.340893 c 0,0 -2.27541,-6.473472 -7.47536,-8.523111 -5.19994,-2.046111 -8.45255,2.137833 -8.54075,3.217333 0,0 7.0732,-0.948972 11.22539,2.532945 0,0 -5.13997,-2.801056 -11.56053,-1.259417 0,0 2.68817,4.229806 7.98336,3.679473 5.29167,-0.546806 5.54214,-0.744361 8.36789,0.352777"
       style="fill:#1f6534;fill-opacity:1;fill-rule:nonzero;stroke:none;stroke-width:0.0352778"
       id="path2534" />
    <path
       d="m 171.2507,76.530755 c 0,0 -2.27894,-6.473472 -7.47889,-8.523111 -5.19994,-2.046112 -8.45255,2.137833 -8.54075,3.217333 0,0 7.07672,-0.948972 11.22539,2.532945 0,0 -5.13644,-2.801056 -11.56053,-1.259417 0,0 2.6917,4.229806 7.98336,3.679472 5.2952,-0.546805 5.54214,-0.744361 8.37142,0.352778"
       style="fill:#1f6534;fill-opacity:1;fill-rule:nonzero;stroke:none;stroke-width:0.0352778"
       id="path2536" />
    <path
       d="m 134.85814,65.196004 c 0,0 -5.78555,-5.401028 -11.8498,-4.720166 -6.06073,0.684388 -6.78745,6.695722 -6.26534,7.84225 0,0 6.15245,-4.741334 12.02973,-3.400778 0,0 -6.42762,-0.119944 -11.63109,4.882445 0,0 4.9142,2.88925 9.60967,-0.497417 4.69547,-3.383139 4.81894,-3.718278 8.10683,-4.106334"
       style="fill:#1f6534;fill-opacity:1;fill-rule:nonzero;stroke:none;stroke-width:0.0352778"
       id="path2538" />
    <path
       d="m 87.000307,88.0807 c 0,0 5.782028,0.913695 8.142112,4.758973 2.360083,3.84175 -0.811389,7.002639 -1.718028,7.221357 0,0 -0.03881,-5.746746 -3.4925,-8.558385 0,0 2.995083,3.690056 2.448278,8.999365 0,0 -3.92289,-1.552226 -4.085167,-5.827893 -0.162278,-4.275666 -0.02469,-4.501444 -1.294695,-6.593417"
       style="fill:#1f6534;fill-opacity:1;fill-rule:nonzero;stroke:none;stroke-width:0.0352778"
       id="path2540" />
    <path
       d="m 121.14567,107.85037 c 0,0 -9.86014,1.67569 -13.81831,8.29028 -3.95816,6.61458 1.524,11.94858 3.07623,12.30136 0,0 -0.0494,-9.81428 5.79966,-14.68967 0,0 -5.04472,6.36411 -4.00402,15.42697 0,0 6.6675,-2.7305 6.86152,-10.03652 0.19403,-7.30956 -0.0459,-7.69056 2.08492,-11.29242"
       style="fill:#1f6534;fill-opacity:1;fill-rule:nonzero;stroke:none;stroke-width:0.0352778"
       id="path2542" />
    <path
       d="m 136.20223,90.020978 c 0,0 -7.26723,-1.961444 -12.05795,1.315861 -4.79072,3.277306 -2.71992,8.650112 -1.76742,9.383891 0,0 3.05506,-6.731001 8.59014,-8.223252 0,0 -5.45394,2.765778 -7.5953,9.288642 0,0 5.41867,0.23283 7.85283,-4.70253 2.43417,-4.935362 2.39184,-5.270501 4.9777,-7.062612"
       style="fill:#1f6534;fill-opacity:1;fill-rule:nonzero;stroke:none;stroke-width:0.0352778"
       id="path2544" />
    <path
       d="m 98.36328,124.92129 c 0,0 6.18067,2.95627 7.54944,8.05744 1.36526,5.10117 -3.24908,7.58825 -4.33916,7.52828 0,0 1.87678,-6.45583 -1.06539,-10.77031 0,0 2.13078,5.1435 -0.254,10.91848 0,0 -3.880557,-3.048 -2.638779,-7.90223 1.241778,-4.85069 1.474611,-5.05883 0.747889,-7.83166"
       style="fill:#1f6534;fill-opacity:1;fill-rule:nonzero;stroke:none;stroke-width:0.0352778"
       id="path2546" />
    <path
       d="m 111.84292,91.742534 c 0,0 6.18067,2.95275 7.54944,8.053917 1.36525,5.104699 -3.24908,7.588249 -4.33916,7.531809 0,0 1.87678,-6.45936 -1.06539,-10.770309 0,0 2.13078,5.143499 -0.254,10.918469 0,0 -3.88056,-3.05152 -2.63878,-7.902219 1.24178,-4.854222 1.47461,-5.058834 0.74789,-7.831667"
       style="fill:#1f6534;fill-opacity:1;fill-rule:nonzero;stroke:none;stroke-width:0.0352778"
       id="path2548" />
    <path
       d="m 164.9642,122.05673 c 0,0 6.61458,-1.78506 10.97492,1.19944 4.3568,2.98098 2.47297,7.87401 1.60867,8.53723 0,0 -2.77989,-6.1207 -7.82109,-7.48242 0,0 4.96711,2.51883 6.91445,8.45608 0,0 -4.93184,0.21167 -7.14728,-4.28272 -2.21545,-4.49086 -2.17664,-4.79778 -4.52967,-6.42761"
       style="fill:#1f6534;fill-opacity:1;fill-rule:nonzero;stroke:none;stroke-width:0.0352778"
       id="path2550" />
    <path
       d="m 143.88573,87.752617 c 0,0 -3.98639,2.257778 -4.66373,5.725584 -0.6738,3.467805 2.52237,4.914194 3.24556,4.822472 0,0 -1.55222,-4.22275 0.21167,-7.235472 0,0 -1.18534,3.531305 0.67733,7.274278 0,0 2.44828,-2.215445 1.39347,-5.397501 -1.0548,-3.182055 -1.21708,-3.309055 -0.8643,-5.189361"
       style="fill:#1f6534;fill-opacity:1;fill-rule:nonzero;stroke:none;stroke-width:0.0352778"
       id="path2552" />
    <path
       d="m 181.1179,89.378923 c 0,0 7.06261,4.0005 8.25852,10.142361 1.19592,6.141866 -4.46263,8.703026 -5.74675,8.544276 0,0 2.74814,-7.47889 -0.37041,-12.816415 0,0 2.0955,6.251225 -1.19945,12.879915 0,0 -4.33916,-3.92289 -2.46944,-9.556748 1.86972,-5.633861 2.159,-5.856111 1.52753,-9.193389"
       style="fill:#1f6534;fill-opacity:1;fill-rule:nonzero;stroke:none;stroke-width:0.0352778"
       id="path2554" />
    <path
       d="m 182.47609,113.4807 c 0,0 -3.9758,-7.0238 -10.08239,-8.21267 -6.10305,-1.18886 -8.64658,4.43795 -8.48783,5.71148 0,0 7.43303,-2.7305 12.7388,0.37041 0,0 -6.21594,-2.08138 -12.80583,1.19592 0,0 3.89819,4.30742 9.50031,2.45181 5.59858,-1.85914 5.82083,-2.14489 9.13694,-1.51695"
       style="fill:#1f6534;fill-opacity:1;fill-rule:nonzero;stroke:none;stroke-width:0.0352778"
       id="path2556" />
    <path
       d="m 195.39834,122.73759 c 0,0 3.00567,-5.86669 1.07597,-10.56569 -1.92969,-4.699 -6.91091,-3.90878 -7.70819,-3.22792 0,0 5.19994,3.84528 5.46453,8.85825 0,0 -1.36878,-5.17525 -6.56167,-8.20208 0,0 -1.19239,4.59669 2.58939,7.58472 3.78178,2.9845 4.07811,3.00919 5.13997,5.55272"
       style="fill:#1f6534;fill-opacity:1;fill-rule:nonzero;stroke:none;stroke-width:0.0352778"
       id="path2558" />
    <path
       d="m 155.95426,82.118756 c 0,0 -8.18092,6.367639 -8.54781,14.351 -0.36689,7.983364 7.25664,10.163524 8.85119,9.722554 0,0 -4.8648,-8.935859 -1.91911,-16.259526 0,0 -1.48166,8.290278 3.91584,16.051386 0,0 4.74839,-5.76439 1.34055,-12.534192 -3.41136,-6.769806 -3.81705,-6.999111 -3.64066,-11.331222"
       style="fill:#1f6534;fill-opacity:1;fill-rule:nonzero;stroke:none;stroke-width:0.0352778"
       id="path2560" />
    <path
       d="m 162.63587,77.853672 c 0,0 -3.46075,2.695222 -3.61598,6.071306 -0.15522,3.376083 3.06917,4.300361 3.74298,4.113389 0,0 -2.0567,-3.781778 -0.81139,-6.879167 0,0 -0.62795,3.506611 1.65453,6.790973 0,0 2.01083,-2.437695 0.56797,-5.302251 -1.44286,-2.864555 -1.6122,-2.959806 -1.53811,-4.79425"
       style="fill:#1f6534;fill-opacity:1;fill-rule:nonzero;stroke:none;stroke-width:0.0352778"
       id="path2562" />
    <path
       d="m 148.96926,70.836921 c 0,0 -3.46075,2.695223 -3.61598,6.071306 -0.15522,3.376084 3.0727,4.300362 3.7465,4.11339 0,0 -2.06022,-3.781778 -0.81139,-6.879168 0,0 -0.62794,3.506612 1.65453,6.790973 0,0 2.01084,-2.437694 0.56797,-5.30225 -1.44286,-2.861028 -1.61572,-2.959806 -1.54163,-4.794251"
       style="fill:#1f6534;fill-opacity:1;fill-rule:nonzero;stroke:none;stroke-width:0.0352778"
       id="path2564" />
    <path
       d="m 128.23298,70.836921 c 0,0 -3.46075,2.695223 -3.61598,6.071306 -0.15522,3.376084 3.06917,4.300362 3.74298,4.11339 0,0 -2.0567,-3.781778 -0.81139,-6.879168 0,0 -0.62442,3.506612 1.65805,6.790973 0,0 2.00731,-2.437694 0.56445,-5.30225 -1.44286,-2.861028 -1.6122,-2.959806 -1.53811,-4.794251"
       style="fill:#1f6534;fill-opacity:1;fill-rule:nonzero;stroke:none;stroke-width:0.0352778"
       id="path2566" />
    <path
       d="m 173.32856,75.839311 c 0,0 6.46642,8.008056 5.01298,15.807973 -1.45345,7.799917 -9.31687,8.180917 -10.7562,7.394223 0,0 6.72394,-7.535334 5.53508,-15.282335 0,0 -0.4445,8.346723 -7.41891,14.629696 0,0 -3.28789,-6.646334 1.54164,-12.417779 4.82952,-5.771445 5.27402,-5.901972 6.08541,-10.131778"
       style="fill:#1f6534;fill-opacity:1;fill-rule:nonzero;stroke:none;stroke-width:0.0352778"
       id="path2568" />
    <path
       d="m 122.51092,78.4287 c 0,0 1.67922,6.237111 -1.13242,10.3505 -2.81164,4.109862 -7.42597,2.335389 -8.05391,1.516945 0,0 5.77497,-2.621139 7.05555,-7.373056 0,0 -2.37066,4.681361 -7.97278,6.519334 0,0 -0.20108,-4.649612 4.03931,-6.741584 4.23686,-2.088445 4.52614,-2.053167 6.06425,-4.272139"
       style="fill:#1f6534;fill-opacity:1;fill-rule:nonzero;stroke:none;stroke-width:0.0352778"
       id="path2570" />
    <path
       d="m 147.33237,125.53865 c 0,0 -5.48217,-3.42548 -10.23409,-1.9297 -4.75191,1.49225 -4.39208,6.42409 -3.79589,7.2637 0,0 4.191,-4.7625 9.10873,-4.60375 0,0 -5.1682,0.90664 -8.55839,5.72911 0,0 4.39208,1.54517 7.62352,-1.90147 3.23498,-3.44664 3.28084,-3.73239 5.85612,-4.55789"
       style="fill:#1f6534;fill-opacity:1;fill-rule:nonzero;stroke:none;stroke-width:0.0352778"
       id="path2572" />
    <path
       d="m 137.86381,74.989116 c 0,0 1.05128,3.901723 -0.70556,6.473473 -1.76036,2.568222 -4.64608,1.456972 -5.03766,0.948972 0,0 3.61244,-1.640417 4.41325,-4.610806 0,0 -1.4852,2.928056 -4.98475,4.074584 0,0 -0.127,-2.906889 2.52236,-4.212167 2.64936,-1.308806 2.82928,-1.284111 3.79236,-2.674056"
       style="fill:#1f6534;fill-opacity:1;fill-rule:nonzero;stroke:none;stroke-width:0.0352778"
       id="path2574" />
    <path
       d="m 66.144084,74.982061 c 0,0 6.512278,3.012722 8.011583,8.336139 1.499306,5.326945 -3.302,7.990417 -4.445,7.944556 0,0 1.880306,-6.790973 -1.252361,-11.267723 0,0 2.296583,5.358695 -0.127,11.440584 0,0 -4.106334,-3.14325 -2.868084,-8.244417 1.241778,-5.097639 1.478139,-5.316361 0.680862,-8.209139"
       style="fill:#1f6534;fill-opacity:1;fill-rule:nonzero;stroke:none;stroke-width:0.0352778"
       id="path2576" />
    <path
       d="m 62.598667,41.43642 c 0,0 -5.838473,0.419805 -8.516056,4.053417 -2.677584,3.630083 0.218722,7.044972 1.104194,7.337778 0,0 0.522111,-5.718528 4.201584,-8.230306 0,0 -3.294945,3.425472 -3.199695,8.759473 0,0 4.039306,-1.213556 4.561417,-5.461001 0.525639,-4.247445 0.405694,-4.483806 1.848556,-6.459361"
       style="fill:#1f6534;fill-opacity:1;fill-rule:nonzero;stroke:none;stroke-width:0.0352778"
       id="path2578" />
    <path
       d="m 61.215778,64.038893 c 0,0 -7.944556,4.279195 -9.41564,11.077223 -1.474611,6.798028 4.755445,9.775473 6.184195,9.630834 0,0 -2.878667,-8.378473 0.712611,-14.238112 0,0 -2.472972,6.900334 1.033639,14.347473 0,0 4.914195,-4.258028 2.966861,-10.565695 -1.943805,-6.304139 -2.257777,-6.558139 -1.481666,-10.251723"
       style="fill:#1f6534;fill-opacity:1;fill-rule:nonzero;stroke:none;stroke-width:0.0352778"
       id="path2580" />
    <path
       d="m 50.49486,45.65917 c 0,0 -7.944556,4.279195 -9.415639,11.077223 -1.474611,6.798028 4.755445,9.775473 6.184195,9.630834 0,0 -2.878667,-8.378473 0.712611,-14.238112 0,0 -2.472972,6.900334 1.033639,14.347473 0,0 4.910667,-4.258028 2.966861,-10.565695 -1.943806,-6.30414 -2.261306,-6.55814 -1.481667,-10.251723"
       style="fill:#1f6534;fill-opacity:1;fill-rule:nonzero;stroke:none;stroke-width:0.0352778"
       id="path2582" />
    <path
       d="m 22.279692,61.114365 c 0,0 12.770556,-1.763889 20.203585,4.836584 7.433028,6.600473 2.758722,15.285862 0.98425,16.323029 0,0 -3.742973,-12.089695 -12.827001,-15.818557 0,0 8.674806,5.873751 10.907889,17.420168 0,0 -9.256889,-0.772583 -12.329584,-9.683751 -3.076222,-8.911167 -2.928055,-9.475611 -6.939139,-13.077473"
       style="fill:#1f6534;fill-opacity:1;fill-rule:nonzero;stroke:none;stroke-width:0.0352778"
       id="path2584" />
    <path
       d="m 87.240196,45.496892 c 0,0 14.661444,-2.024944 23.191614,5.552723 8.53369,7.574139 3.16442,17.54364 1.13242,18.732501 0,0 -4.29684,-13.874751 -14.72495,-18.153946 0,0 9.95539,6.741584 12.52008,19.991918 0,0 -10.625663,-0.885472 -14.153441,-11.1125 -3.527778,-10.230557 -3.358445,-10.87614 -7.965723,-15.010696"
       style="fill:#1f6534;fill-opacity:1;fill-rule:nonzero;stroke:none;stroke-width:0.0352778"
       id="path2586" />
    <path
       d="m 201.48729,125.11531 c 0,0 -1.25589,10.61156 -8.10331,15.19414 -6.84742,4.57906 -12.83758,-0.98425 -13.29972,-2.62466 0,0 10.48103,-0.47273 15.37053,-6.98148 0,0 -6.52287,5.72912 -16.25248,5.10823 0,0 2.55411,-7.2637 10.34698,-7.86695 7.78933,-0.59972 8.20914,-0.36689 11.938,-2.82928"
       style="fill:#1f6534;fill-opacity:1;fill-rule:nonzero;stroke:none;stroke-width:0.0352778"
       id="path2588" />
    <path
       d="m 162.94278,126.01137 c 0,0 3.94053,6.96031 1.83445,12.75644 -2.10256,5.79614 -8.18092,5.08706 -9.18634,4.30389 0,0 6.11364,-4.92477 6.1842,-11.01725 0,0 -1.40053,6.34648 -7.54592,10.27642 0,0 -1.67569,-5.51392 2.76225,-9.32744 4.43442,-3.81 4.79073,-3.85587 5.95136,-6.99206"
       style="fill:#1f6534;fill-opacity:1;fill-rule:nonzero;stroke:none;stroke-width:0.0352778"
       id="path2590" />
    <path
       d="m 134.13142,149.95793 c 0,0 2.13783,-7.7082 7.72231,-10.31875 5.588,-2.61056 9.38389,2.18722 9.53911,3.45016 0,0 -7.80697,-0.83961 -12.16378,3.41842 0,0 5.47864,-3.49603 12.60475,-1.92969 0,0 -2.71639,5.08352 -8.5478,4.64255 -5.83142,-0.44097 -6.11717,-0.66322 -9.15459,0.73731"
       style="fill:#1f6534;fill-opacity:1;fill-rule:nonzero;stroke:none;stroke-width:0.0352778"
       id="path2592" />
    <path
       d="m 11.957414,70.565283 c 0,0 -2.264834,10.311695 2.638777,16.806334 4.90714,6.494639 12.301362,3.242028 13.264446,1.859139 0,0 -9.627306,-3.838222 -12.08264,-11.493501 0,0 4.229806,7.457723 13.51139,10.029473 0,0 -0.02822,-7.605889 -7.104945,-10.692695 -7.076723,-3.086806 -7.545917,-3.002139 -10.227028,-6.50875"
       style="fill:#1f6534;fill-opacity:1;fill-rule:nonzero;stroke:none;stroke-width:0.0352778"
       id="path2594" />
    <path
       d="m 20.656914,91.414451 c 0,0 6.039556,5.549194 5.813778,11.863919 -0.22225,6.31825 -6.374695,7.54592 -7.602361,7.09789 0,0 4.409722,-6.73453 2.557639,-12.696476 0,0 0.635,6.628696 -4.116917,12.403666 0,0 -3.372556,-4.85069 -0.250473,-9.9695 3.122084,-5.115277 3.457223,-5.270499 3.598334,-8.699499"
       style="fill:#1f6534;fill-opacity:1;fill-rule:nonzero;stroke:none;stroke-width:0.0352778"
       id="path2596" />
    <path
       d="m 28.746109,85.194978 c 0,0 8.110362,1.195917 11.475862,6.544028 3.361972,5.351639 -1.037167,9.824864 -2.303639,10.142364 0,0 -0.134056,-8.046864 -5.016501,-11.938003 0,0 4.250973,5.125862 3.559528,12.573003 0,0 -5.513917,-2.11667 -5.806722,-8.103308 -0.289278,-5.990167 -0.102306,-6.307667 -1.908528,-9.218084"
       style="fill:#1f6534;fill-opacity:1;fill-rule:nonzero;stroke:none;stroke-width:0.0352778"
       id="path2598" />
    <path
       d="m 75.429195,111.84734 c 0,0 6.060723,1.17828 8.406695,5.31989 2.345973,4.14514 -1.121833,7.35542 -2.084917,7.54944 0,0 0.176389,-6.05719 -3.361972,-9.15458 0,0 3.019778,4.00403 2.243667,9.58145 0,0 -4.074584,-1.78153 -4.085167,-6.29709 -0.01411,-4.51555 0.141111,-4.74486 -1.118306,-6.99911"
       style="fill:#1f6534;fill-opacity:1;fill-rule:nonzero;stroke:none;stroke-width:0.0352778"
       id="path2600" />
    <path
       d="m 103.4327,84.7152 c 0,0 4.28625,2.928056 4.71664,6.903862 0.43039,3.979333 -3.31259,5.30225 -4.12045,5.132917 0,0 2.15195,-4.614334 0.45156,-8.184445 0,0 0.99836,4.09575 -1.45698,8.142111 0,0 -2.55058,-2.7305 -1.05833,-6.219472 1.49578,-3.488973 1.68981,-3.615973 1.46756,-5.774973"
       style="fill:#1f6534;fill-opacity:1;fill-rule:nonzero;stroke:none;stroke-width:0.0352778"
       id="path2602" />
    <path
       d="m 108.61853,72.618449 c 0,0 4.28272,2.928056 4.71311,6.903862 0.43392,3.979334 -3.30905,5.30225 -4.12044,5.132917 0,0 2.15547,-4.614334 0.45508,-8.184445 0,0 0.99836,4.09575 -1.45697,8.142112 0,0 -2.55411,-2.734028 -1.05833,-6.219473 1.49225,-3.488972 1.6898,-3.615972 1.46755,-5.774973"
       style="fill:#1f6534;fill-opacity:1;fill-rule:nonzero;stroke:none;stroke-width:0.0352778"
       id="path2604" />
    <path
       d="m 9.0822744,118.98404 c 0,0 -2.5047223,8.30791 1.1041946,13.93825 3.608917,5.63033 9.874251,3.43252 10.74914,2.36008 0,0 -7.648223,-3.75003 -9.175751,-10.18117 0,0 2.998611,6.38175 10.438695,9.07345 0,0 0.455083,-6.23711 -5.147028,-9.21103 -5.605639,-2.97392 -5.993695,-2.93511 -7.9692506,-5.97958"
       style="fill:#1f6534;fill-opacity:1;fill-rule:nonzero;stroke:none;stroke-width:0.0352778"
       id="path2606" />
    <path
       d="m 26.050887,120.08117 c 0,0 -1.718028,5.70089 0.758472,9.56381 2.4765,3.86292 6.773334,2.35303 7.373056,1.61925 0,0 -5.245806,-2.57528 -6.293556,-6.985 0,0 2.056695,4.37797 7.161389,6.223 0,0 0.313973,-4.27567 -3.531305,-6.31825 -3.845279,-2.03906 -4.11339,-2.01436 -5.468056,-4.10281"
       style="fill:#1f6534;fill-opacity:1;fill-rule:nonzero;stroke:none;stroke-width:0.0352778"
       id="path2608" />
    <path
       d="m 29.162387,135.28943 c 0,0 -1.721556,5.70088 0.758472,9.5638 2.4765,3.86292 6.773334,2.35303 7.373056,1.61925 0,0 -5.245806,-2.57528 -6.293556,-6.985 0,0 2.056695,4.37797 7.161389,6.223 0,0 0.313973,-4.27567 -3.531305,-6.31825 -3.845278,-2.04258 -4.113389,-2.01436 -5.468056,-4.1028"
       style="fill:#1f6534;fill-opacity:1;fill-rule:nonzero;stroke:none;stroke-width:0.0352778"
       id="path2610" />
    <path
       d="m 48.78036,84.944506 c 0,0 -2.786944,9.235723 1.227667,15.497524 4.011084,6.25828 10.978445,3.81353 11.948584,2.62467 0,0 -8.501945,-4.17336 -10.202334,-11.320638 0,0 3.33375,7.094361 11.609918,10.085918 0,0 0.504472,-6.932085 -5.725584,-10.241141 -6.230056,-3.305528 -6.663973,-3.263194 -8.858251,-6.646333"
       style="fill:#1f6534;fill-opacity:1;fill-rule:nonzero;stroke:none;stroke-width:0.0352778"
       id="path2612" />
    <path
       d="m 68.200778,40.543892 c 0,0 -8.66775,9.965973 -7.1755,20.037779 1.49225,10.071806 11.564056,10.932584 13.447889,9.990667 0,0 -8.272639,-9.983612 -6.378222,-19.864918 0,0 0.176389,10.727973 8.8265,19.117029 0,0 4.52614,-8.371417 -1.393472,-16.002001 -5.919611,-7.630584 -6.484056,-7.821084 -7.327195,-13.278556"
       style="fill:#1f6534;fill-opacity:1;fill-rule:nonzero;stroke:none;stroke-width:0.0352778"
       id="path2614" />
    <path
       d="m -17.912283,169.13846 c 0,0 5.111751,7.80697 12.2484454,8.72772 7.1366949,0.91722 9.6520006,-5.76439 9.3768339,-7.22489 0,0 -8.3784727,3.70417 -14.7320013,0.51858 0,0 7.3271953,1.94381 14.689668,-2.32833 0,0 -4.8224725,-4.68489 -11.1477785,-2.12725 -6.3253055,2.56117 -6.5616675,2.91042 -10.4351675,2.43417"
       style="fill:#1f6534;fill-opacity:1;fill-rule:nonzero;stroke:none;stroke-width:0.0352778"
       id="path2616" />
    <path
       d="m 170.58748,169.50182 c 0,0 5.47511,8.36436 13.11628,9.34861 7.64116,0.98425 10.33639,-6.17361 10.04005,-7.73642 0,0 -8.97114,3.96875 -15.77622,0.55739 0,0 7.84931,2.07786 15.73389,-2.49414 0,0 -5.16467,-5.02003 -11.938,-2.27894 -6.77333,2.74461 -7.02733,3.11502 -11.176,2.6035"
       style="fill:#1f6534;fill-opacity:1;fill-rule:nonzero;stroke:none;stroke-width:0.0352778"
       id="path2618" />
    <path
       d="m 1.5786906,179.84173 c 0,0 7.7470005,2.51884 13.1021674,-0.75847 5.358695,-3.2773 3.414889,-9.20044 2.427111,-10.04358 0,0 -3.672417,7.10141 -9.7366669,8.41022 0,0 6.0466119,-2.68817 8.7206669,-9.62025 0,0 -5.842,-0.55033 -8.7453613,4.65314 -2.9033613,5.19994 -2.8751391,5.56683 -5.7679171,7.35894"
       style="fill:#1f6534;fill-opacity:1;fill-rule:nonzero;stroke:none;stroke-width:0.0352778"
       id="path2620" />
    <path
       d="m 196.48843,166.94418 c 0,0 -1.10773,-7.04498 -5.78909,-9.92717 -4.68489,-2.88219 -8.53722,0.98072 -8.80533,2.08492 0,0 7.00264,0.0529 10.42811,4.26861 0,0 -4.49439,-3.65831 -10.96786,-2.99509 0,0 1.88736,4.78014 7.09789,4.98476 5.21052,0.20108 5.48569,0.0353 8.03628,1.58397"
       style="fill:#1f6534;fill-opacity:1;fill-rule:nonzero;stroke:none;stroke-width:0.0352778"
       id="path2622" />
    <path
       d="m 197.44093,157.65554 c 0,0 5.27755,-4.79778 5.11175,-10.29406 -0.16581,-5.49275 -5.51039,-6.58989 -6.57931,-6.20536 0,0 3.80294,5.87728 2.16606,11.05606 0,0 0.58208,-5.76439 -3.52778,-10.80912 0,0 -2.95628,4.20512 -0.26106,8.67128 2.6917,4.46264 2.9845,4.60023 3.09034,7.5812"
       style="fill:#1f6534;fill-opacity:1;fill-rule:nonzero;stroke:none;stroke-width:0.0352778"
       id="path2624" />
    <path
       d="m 187.43615,149.54165 c 0,0 -4.49086,-5.54567 -9.98714,-5.69031 -5.49628,-0.14816 -6.89328,5.12586 -6.57225,6.21595 0,0 6.08541,-3.46428 11.16189,-1.53459 0,0 -5.72206,-0.91016 -10.99256,2.90689 0,0 4.02872,3.18911 8.64306,0.75495 4.6108,-2.43417 4.7625,-2.71639 7.747,-2.65289"
       style="fill:#1f6534;fill-opacity:1;fill-rule:nonzero;stroke:none;stroke-width:0.0352778"
       id="path2626" />
    <path
       d="m 83.560724,200.80026 c 0,0 7.655278,-31.64417 -41.186809,-42.17106 -4.318,-0.93133 -8.815917,-0.98425 -13.081,0.17287 -2.353028,0.63852 -4.78014,1.651 -6.678084,3.26319 -5.415139,4.60375 -24.648585,2.70933 -24.648585,2.70933 0,0 15.441084,0 23.565557,-5.95841 0,0 -28.4409462,3.24908 -33.587974,-10.02242 0,0 10.8338059,13.54314 36.297308,4.064 l -5.609168,-4.58964 c -2.106083,-1.72508 -4.699,-2.7305 -7.415389,-2.90336 -5.083528,-0.32456 -13.2256396,-1.21356 -14.3333619,-3.61245 0,0 7.0414449,1.89442 14.6261679,0.81139 0,0 -8.9393898,-10.8338 -25.731613,-10.29405 0,0 18.9618067,-5.95842 37.920086,13.81478 0,0 4.607278,5.95841 20.316473,4.60375 15.709196,-1.35467 28.712585,7.04497 28.712585,7.04497 0,0 -3.792361,-14.89781 -14.358056,-16.25247 -10.562167,-1.35467 -31.69003,-4.87539 -33.856086,-10.02242 0,0 8.897057,6.09953 25.950335,5.00592 1.633362,-0.10584 3.273778,-0.10584 4.896556,0.1023 1.834445,0.23636 4.085167,0.70908 5.718528,1.66158 0,0 -12.73175,-17.06386 -28.169307,-17.3355 -15.441084,-0.26811 -33.8596132,-2.7058 -35.75403,-9.2075 0,0 5.1470281,7.04145 30.063724,5.14703 0,0 -18.1468899,-7.04497 -21.6676123,-15.71272 0,0 6.5016953,9.21103 25.4599733,14.62969 18.961807,5.41514 24.648585,10.02242 24.648585,10.02242 0,0 1.626306,-5.69031 -7.041445,-12.46011 -8.66775,-6.77334 -17.063862,-7.85636 -18.418528,-15.984364 0,0 -0.811389,4.064004 19.773195,13.275034 0,0 -5.147028,-10.02242 -8.939389,-10.833811 0,0 7.044972,1.351141 14.626167,15.165921 4.43089,8.06802 7.104945,12.53419 8.561918,14.85194 0.5715,0.90664 1.957916,0.6985 2.226027,-0.33866 0.846667,-3.23851 1.950862,-9.05934 0.860778,-14.51328 0,0 3.249084,8.12447 1.583973,18.14336 -0.257528,1.54517 0.127,3.13267 1.125361,4.34622 2.229556,2.70228 5.958417,7.62706 5.958417,10.287 0,0 4.649611,-10.71386 9.581445,-16.59819 1.926167,-2.29659 2.861028,-5.26698 2.434167,-8.23031 -0.451556,-3.15383 -1.792111,-7.24958 -5.242278,-11.46881 -7.316612,-8.93939 -11.105446,-14.086414 -10.565695,-19.773192 0,0 1.855611,6.960306 7.926917,12.932832 0.617361,0.61031 1.672166,0.19756 1.710972,-0.67028 0.201083,-4.395607 -0.04586,-14.516802 -6.117167,-18.492608 0,0 8.293806,3.686528 8.946445,17.219088 0.119944,2.51177 0.896056,4.953 2.321278,7.02733 l 0.652639,0.94545 c 0,0 2.437694,-10.02242 1.894417,-14.626172 0,0 2.166055,14.082892 1.083027,17.875252 -1.083027,3.79236 1.897945,9.21103 1.897945,9.21103 0,0 12.999857,-13.54314 16.520587,-26.274894 0,0 -8.12448,25.731614 -17.063865,36.297304 -8.939389,10.56217 -8.124473,34.12773 -2.709333,36.56542 0,0 15.441088,-30.33536 29.255858,-38.735 l 0.14464,-0.0882 c 2.4765,-1.53811 3.90173,-4.28273 3.8347,-7.19667 -0.14111,-6.20536 1.58044,-16.61231 13.08453,-23.681974 0,0 -6.5017,8.847664 -6.32178,12.460114 0,0 6.32178,-4.87539 13.00339,-6.14186 6.68161,-1.26295 8.30439,-6.681616 8.30439,-6.681616 0,0 -1.8027,8.127996 -14.986,12.643556 -13.18331,4.51203 -7.94456,12.64003 -7.94456,12.64003 0,0 10.47397,-7.76464 23.114,-8.66775 12.64003,-0.90311 20.40467,-11.37709 20.40467,-11.37709 0,0 -8.30792,10.11062 -13.54314,11.73692 0,0 14.26633,3.06917 21.12786,-1.6263 0,0 -14.80961,7.04497 -31.42192,5.95841 -16.6123,-1.08302 -24.19703,15.34937 -24.19703,15.34937 0,0 23.11401,1.08655 34.12773,-4.69195 0,0 -17.51542,9.02758 -29.25234,9.38742 -11.73691,0.36336 -23.114,21.12786 -23.114,21.12786 0,0 17.3355,-7.22136 33.58798,-8.30439 16.25247,-1.08655 36.2973,-18.96181 36.2973,-18.96181 0,0 14.62617,-7.22488 20.58459,-3.24908 0,0 -11.19717,-1.6263 -26.00325,11.01372 l 13.1833,-0.17991 -12.93989,2.55764 c -2.25777,0.44802 -4.38502,1.36172 -6.25827,2.69169 -3.66889,2.61056 -9.87778,6.84742 -11.50056,6.84742 0,0 32.86478,5.41866 41.71245,-7.22136 0,0 -11.37709,13.90297 -30.15545,12.46011 0,0 13.72306,6.50169 21.85106,5.59858 0,0 -19.14173,1.8027 -25.64342,-3.43253 -6.36411,-5.12586 -76.598644,6.8827 -56.49384,34.50167 0.94897,1.30175 1.41817,2.89278 1.41817,4.50498 v 0 l -20.947946,-0.0917"
       style="fill:#2b1100;fill-opacity:1;fill-rule:nonzero;stroke:none;stroke-width:0.0352778"
       id="path2628" />
    <path
       d="M 23.786053,205.22057 H 172.43251 c 0,0 -77.43473,-14.25928 -148.646457,0"
       style="fill:#552200;fill-opacity:1;fill-rule:nonzero;stroke:none;stroke-width:0.0352778"
       id="path2630" />
  </g>
</svg>
