<?xml version="1.0" encoding="UTF-8" standalone="no"?>
<!-- Created with Inkscape (http://www.inkscape.org/) -->

<svg
   width="226.25467mm"
   height="215.57016mm"
   viewBox="0 0 226.25466 215.57016"
   version="1.1"
   id="svg3241"
   inkscape:version="1.2.1 (0f2f062aeb, 2022-09-21, custom)"
   sodipodi:docname="logo-white.svg"
   xmlns:inkscape="http://www.inkscape.org/namespaces/inkscape"
   xmlns:sodipodi="http://sodipodi.sourceforge.net/DTD/sodipodi-0.dtd"
   xmlns="http://www.w3.org/2000/svg"
   xmlns:svg="http://www.w3.org/2000/svg">
  <sodipodi:namedview
     id="namedview3243"
     pagecolor="#ffffff"
     bordercolor="#666666"
     borderopacity="1.0"
     inkscape:showpageshadow="2"
     inkscape:pageopacity="0.0"
     inkscape:pagecheckerboard="0"
     inkscape:deskcolor="#d1d1d1"
     inkscape:document-units="mm"
     showgrid="false"
     inkscape:zoom="0.57848045"
     inkscape:cx="76.061343"
     inkscape:cy="509.0924"
     inkscape:window-width="1848"
     inkscape:window-height="1016"
     inkscape:window-x="72"
     inkscape:window-y="27"
     inkscape:window-maximized="1"
     inkscape:current-layer="layer1" />
  <defs
     id="defs3238">
    <rect
       x="-115.9248"
       y="1197.6426"
       width="1066.0822"
       height="266.94397"
       id="rect3761" />
    <rect
       x="-115.9248"
       y="1197.6426"
       width="1066.0822"
       height="266.94397"
       id="rect5201" />
  </defs>
  <g
     inkscape:label="Layer 1"
     inkscape:groupmode="layer"
     id="layer1"
     transform="translate(-1.890371,-244.99439)">
    <g
       id="g1257"
       transform="matrix(0.9,0,0,0.9,11.501768,35.277953)">
      <g
         aria-label="RACHELBLOT.FR"
         transform="matrix(0.24265463,0,0,0.24265463,108.07253,162.39179)"
         id="text5199"
         style="font-size:39.9999px;line-height:1;font-family:'Futura Md BT';-inkscape-font-specification:'Futura Md BT, Normal';letter-spacing:0px;word-spacing:0px;white-space:pre;shape-inside:url(#rect5201);display:inline;fill:#ffffff">
        <path
           d="m -107.99416,1211.6269 h 0.83984 q 3.6914,0 4.90233,-0.8594 1.21094,-0.8593 1.21094,-3.0468 0,-2.3633 -1.30859,-3.3203 -1.28906,-0.9766 -4.80468,-0.9766 h -0.83984 z m -0.29297,3.6133 v 12.7929 h -4.35546 v -28.5937 h 6.48436 q 2.85156,0 4.41405,0.3711 1.58203,0.3711 2.69531,1.2305 1.328122,1.0352 2.050776,2.6758 0.722655,1.6406 0.722655,3.5937 0,3.4375 -1.660152,5.3906 -1.660153,1.9336 -4.902329,2.3242 l 9.843723,13.0078 h -5.253894 l -9.511699,-12.7929 z"
           id="path1135" />
        <path
           d="m -84.205157,1216.8027 h 7.968731 l -2.929681,-6.5234 q -0.253905,-0.625 -0.527342,-1.4258 -0.273437,-0.8203 -0.546874,-1.8164 -0.234374,0.9375 -0.507811,1.7578 -0.253905,0.8008 -0.527342,1.4844 z m 12.851531,11.2304 -3.242179,-7.3632 h -11.328097 l -3.320305,7.3632 h -4.8828 l 13.847622,-29.7265 13.828091,29.7265 z"
           id="path1137" />
        <path
           d="m -41.509953,1206.3926 q -1.972651,-1.6797 -4.179677,-2.5196 -2.187494,-0.8398 -4.609363,-0.8398 -4.687489,0 -7.6367,3.0078 -2.92968,3.0078 -2.92968,7.7929 0,4.6289 2.851555,7.6367 2.871087,3.0078 7.226545,3.0078 2.539056,0 4.824206,-0.8984 2.304682,-0.8984 4.414052,-2.7148 v 5.2539 q -1.874995,1.3476 -4.082021,2.0117 -2.207026,0.664 -4.785145,0.664 -3.281242,0 -6.074203,-1.0742 -2.773431,-1.0742 -4.882801,-3.164 -2.089838,-2.0508 -3.222648,-4.8242 -1.113278,-2.793 -1.113278,-5.9375 0,-3.1445 1.113278,-5.8984 1.13281,-2.7735 3.261711,-4.8633 2.128901,-2.1094 4.8828,-3.1836 2.753899,-1.0937 5.957017,-1.0937 2.519525,0 4.804675,0.7421 2.285151,0.7227 4.433583,2.2071 z"
           id="path1139" />
        <path
           d="m -35.748246,1228.0331 v -28.5937 h 4.648426 v 10.5469 h 14.062465 v -10.5469 h 4.648426 v 28.5937 h -4.648426 v -13.8867 H -31.09982 v 13.8867 z"
           id="path1141" />
        <path
           d="m -5.826447,1228.0331 v -28.5937 h 15.956992 v 3.9454 H -1.1780211 v 7.1679 H 10.130545 v 4.082 H -1.1780211 v 9.2383 H 10.130545 v 4.1601 z"
           id="path1143" />
        <path
           d="m 15.462562,1228.0331 v -28.5937 h 4.648426 v 24.4336 h 10.390599 v 4.1601 z"
           id="path1145" />
        <path
           d="m 38.82188,1211.5097 h 1.777339 q 3.320305,0 4.687489,-0.8984 1.386715,-0.918 1.386715,-3.0664 0,-2.3437 -1.269528,-3.2812 -1.269528,-0.9571 -4.804676,-0.9571 H 38.82188 Z m 0,12.6367 h 1.601559 q 2.4414,0 3.652334,-0.1953 1.210935,-0.1953 1.914058,-0.6836 0.859373,-0.5664 1.328122,-1.5234 0.468749,-0.957 0.468749,-2.1094 0,-1.3672 -0.566405,-2.3828 -0.566405,-1.0156 -1.62109,-1.582 -0.664061,-0.3321 -1.523434,-0.4883 -0.839841,-0.1563 -2.246088,-0.1563 H 40.423439 38.82188 Z m -4.55077,3.8867 v -28.5937 h 7.207013 q 3.08593,0 4.55077,0.3321 1.484372,0.332 2.519525,1.0937 1.328122,0.9766 2.050777,2.5586 0.742185,1.582 0.742185,3.4961 0,2.2851 -1.054685,3.8281 -1.054685,1.5234 -3.066398,2.1289 2.499993,0.3906 3.925771,2.2852 1.445309,1.875 1.445309,4.746 0,1.7383 -0.605467,3.3008 -0.605467,1.5625 -1.718746,2.6563 -1.171872,1.1914 -2.910149,1.6796 -1.738277,0.4883 -5.839829,0.4883 z"
           id="path1147" />
        <path
           d="m 57.317924,1228.0331 v -28.5937 h 4.648426 v 24.4336 h 10.390599 v 4.1601 z"
           id="path1149" />
        <path
           d="m 99.173286,1213.7949 q 0,-2.168 -0.800779,-4.1211 -0.781248,-1.9531 -2.265619,-3.4766 -1.445309,-1.5039 -3.359367,-2.3046 -1.894527,-0.8203 -4.003896,-0.8203 -2.10937,0 -4.023428,0.8007 -1.894526,0.8008 -3.378898,2.3242 -1.484371,1.5039 -2.265619,3.4571 -0.781248,1.9531 -0.781248,4.1406 0,2.1679 0.781248,4.1015 0.781248,1.9336 2.265619,3.4571 1.484372,1.5234 3.378898,2.3242 1.894527,0.8007 4.023428,0.8007 2.089838,0 3.964834,-0.8007 1.894526,-0.8008 3.398429,-2.3242 1.484371,-1.5235 2.265619,-3.4571 0.800779,-1.9531 0.800779,-4.1015 z m 4.843734,0 q 0,3.0468 -1.15234,5.7617 -1.13281,2.7148 -3.320301,4.8437 -2.207026,2.1289 -4.980456,3.2617 -2.773431,1.1328 -5.820298,1.1328 -3.08593,0 -5.898423,-1.1328 -2.792962,-1.1523 -4.941394,-3.2617 -2.187495,-2.1289 -3.320304,-4.8242 -1.13281,-2.6953 -1.13281,-5.7812 0,-3.0664 1.13281,-5.7813 1.132809,-2.7148 3.320304,-4.8632 2.187494,-2.1289 4.960925,-3.2422 2.773431,-1.1133 5.878892,-1.1133 3.085929,0 5.839829,1.1133 2.773431,1.1133 4.960925,3.2422 2.187491,2.1679 3.320301,4.9023 1.15234,2.7148 1.15234,5.7422 z"
           id="path1151" />
        <path
           d="m 117.16153,1203.3848 v 24.6483 h -4.64843 v -24.6483 h -7.59763 v -3.9454 h 19.80463 v 3.9454 z"
           id="path1153" />
        <path
           d="m 123.31385,1225.8652 q 0,-1.0743 0.74219,-1.836 0.74218,-0.7617 1.8164,-0.7617 1.07421,0 1.8164,0.7617 0.74218,0.7617 0.74218,1.836 0,1.0546 -0.74218,1.7968 -0.74219,0.7227 -1.8164,0.7227 -1.07422,0 -1.8164,-0.7227 -0.74219,-0.7422 -0.74219,-1.7968 z"
           id="path1155" />
        <path
           d="m 135.18883,1228.0331 v -28.5937 h 15.957 v 3.9454 h -11.30857 v 7.1288 h 11.30857 v 4.0821 h -11.30857 v 13.4374 z"
           id="path1157" />
        <path
           d="m 160.83329,1211.6269 h 0.83984 q 3.6914,0 4.90234,-0.8594 1.21093,-0.8593 1.21093,-3.0468 0,-2.3633 -1.30859,-3.3203 -1.28906,-0.9766 -4.80468,-0.9766 h -0.83984 z m -0.29296,3.6133 v 12.7929 h -4.35546 v -28.5937 h 6.48436 q 2.85155,0 4.41405,0.3711 1.58203,0.3711 2.6953,1.2305 1.32813,1.0352 2.05078,2.6758 0.72265,1.6406 0.72265,3.5937 0,3.4375 -1.66015,5.3906 -1.66015,1.9336 -4.90233,2.3242 l 9.84373,13.0078 h -5.2539 l -9.51169,-12.7929 z"
           id="path1159" />
      </g>
      <g
         aria-label="RACHEL BLOT"
         transform="matrix(0.80141916,0,0,0.80141916,98.351177,-538.74582)"
         id="text3759"
         style="font-size:39.9999px;line-height:1;font-family:'Futura Md BT';-inkscape-font-specification:'Futura Md BT, Normal';letter-spacing:1.65072px;word-spacing:1.65072px;white-space:pre;shape-inside:url(#rect3761);display:inline;fill:#ffffff">
        <path
           d="m -107.99416,1211.6269 h 0.83984 q 3.6914,0 4.90233,-0.8594 1.21094,-0.8593 1.21094,-3.0468 0,-2.3633 -1.30859,-3.3203 -1.28906,-0.9766 -4.80468,-0.9766 h -0.83984 z m -0.29297,3.6133 v 12.7929 h -4.35546 v -28.5937 h 6.48436 q 2.85156,0 4.41405,0.3711 1.58203,0.3711 2.69531,1.2305 1.328122,1.0352 2.050776,2.6758 0.722655,1.6406 0.722655,3.5937 0,3.4375 -1.660152,5.3906 -1.660153,1.9336 -4.902329,2.3242 l 9.843723,13.0078 h -5.253894 l -9.511699,-12.7929 z"
           id="path1114" />
        <path
           d="m -82.554436,1216.8027 h 7.96873 l -2.92968,-6.5234 q -0.253906,-0.625 -0.527342,-1.4258 -0.273437,-0.8203 -0.546874,-1.8164 -0.234374,0.9375 -0.507811,1.7578 -0.253906,0.8008 -0.527343,1.4844 z m 12.851531,11.2304 -3.24218,-7.3632 h -11.328097 l -3.320304,7.3632 h -4.8828 l 13.847622,-29.7265 13.82809,29.7265 z"
           id="path1116" />
        <path
           d="m -38.208512,1206.3926 q -1.972651,-1.6797 -4.179677,-2.5196 -2.187494,-0.8398 -4.609363,-0.8398 -4.687489,0 -7.6367,3.0078 -2.92968,3.0078 -2.92968,7.7929 0,4.6289 2.851555,7.6367 2.871087,3.0078 7.226545,3.0078 2.539056,0 4.824206,-0.8984 2.304682,-0.8984 4.414052,-2.7148 v 5.2539 q -1.874995,1.3476 -4.082021,2.0117 -2.207026,0.664 -4.785144,0.664 -3.281242,0 -6.074204,-1.0742 -2.773431,-1.0742 -4.882801,-3.164 -2.089838,-2.0508 -3.222648,-4.8242 -1.113278,-2.793 -1.113278,-5.9375 0,-3.1445 1.113278,-5.8984 1.13281,-2.7735 3.261711,-4.8633 2.128901,-2.1094 4.8828,-3.1836 2.7539,-1.0937 5.957017,-1.0937 2.519525,0 4.804675,0.7421 2.285151,0.7227 4.433583,2.2071 z"
           id="path1118" />
        <path
           d="m -30.796082,1228.0331 v -28.5937 h 4.648426 v 10.5469 h 14.062465 v -10.5469 h 4.648426 v 28.5937 h -4.648426 v -13.8867 h -14.062465 v 13.8867 z"
           id="path1120" />
        <path
           d="m 0.77643535,1228.0331 v -28.5937 H 16.733427 v 3.9454 H 5.4248613 v 7.1679 H 16.733427 v 4.082 H 5.4248613 v 9.2383 H 16.733427 v 4.1601 z"
           id="path1122" />
        <path
           d="m 23.716163,1228.0331 v -28.5937 h 4.648426 v 24.4336 h 10.390599 v 4.1601 z"
           id="path1124" />
        <path
           d="m 64.097927,1211.5097 h 1.777339 q 3.320304,0 4.687488,-0.8984 1.386716,-0.918 1.386716,-3.0664 0,-2.3437 -1.269528,-3.2812 -1.269528,-0.9571 -4.804676,-0.9571 h -1.777339 z m 0,12.6367 h 1.601558 q 2.4414,0 3.652335,-0.1953 1.210934,-0.1953 1.914058,-0.6836 0.859373,-0.5664 1.328121,-1.5234 0.468749,-0.957 0.468749,-2.1094 0,-1.3672 -0.566405,-2.3828 -0.566404,-1.0156 -1.621089,-1.582 -0.664061,-0.3321 -1.523434,-0.4883 -0.839842,-0.1563 -2.246088,-0.1563 h -1.406247 -1.601558 z m -4.55077,3.8867 v -28.5937 h 7.207013 q 3.08593,0 4.55077,0.3321 1.484371,0.332 2.519525,1.0937 1.328122,0.9766 2.050776,2.5586 0.742186,1.582 0.742186,3.4961 0,2.2851 -1.054685,3.8281 -1.054685,1.5234 -3.066399,2.1289 2.499994,0.3906 3.925772,2.2852 1.445309,1.875 1.445309,4.746 0,1.7383 -0.605467,3.3008 -0.605468,1.5625 -1.718746,2.6563 -1.171872,1.1914 -2.910149,1.6796 -1.738277,0.4883 -5.839829,0.4883 z"
           style="fill:#e6e6e6"
           id="path1126" />
        <path
           d="m 84.244697,1228.0331 v -28.5937 h 4.648426 v 24.4336 h 10.390599 v 4.1601 z"
           style="fill:#e6e6e6"
           id="path1128" />
        <path
           d="m 127.75077,1213.7949 q 0,-2.168 -0.80078,-4.1211 -0.78125,-1.9531 -2.26562,-3.4766 -1.44531,-1.5039 -3.35936,-2.3046 -1.89453,-0.8203 -4.0039,-0.8203 -2.10937,0 -4.02343,0.8007 -1.89453,0.8008 -3.3789,2.3242 -1.48437,1.5039 -2.26562,3.4571 -0.78124,1.9531 -0.78124,4.1406 0,2.1679 0.78124,4.1015 0.78125,1.9336 2.26562,3.4571 1.48437,1.5234 3.3789,2.3242 1.89453,0.8007 4.02343,0.8007 2.08984,0 3.96483,-0.8007 1.89453,-0.8008 3.39843,-2.3242 1.48437,-1.5235 2.26562,-3.4571 0.80078,-1.9531 0.80078,-4.1015 z m 4.84374,0 q 0,3.0468 -1.15234,5.7617 -1.13281,2.7148 -3.32031,4.8437 -2.20702,2.1289 -4.98045,3.2617 -2.77343,1.1328 -5.8203,1.1328 -3.08593,0 -5.89842,-1.1328 -2.79297,-1.1523 -4.9414,-3.2617 -2.18749,-2.1289 -3.3203,-4.8242 -1.13281,-2.6953 -1.13281,-5.7812 0,-3.0664 1.13281,-5.7813 1.13281,-2.7148 3.3203,-4.8632 2.1875,-2.1289 4.96093,-3.2422 2.77343,-1.1133 5.87889,-1.1133 3.08593,0 5.83983,1.1133 2.77343,1.1133 4.96092,3.2422 2.1875,2.1679 3.32031,4.9023 1.15234,2.7148 1.15234,5.7422 z"
           style="fill:#e6e6e6"
           id="path1130" />
        <path
           d="m 147.38972,1203.3848 v 24.6483 h -4.64842 v -24.6483 h -7.59764 v -3.9454 h 19.80464 v 3.9454 z"
           style="fill:#e6e6e6"
           id="path1132" />
      </g>
      <path
         d="M 73.331737,457.60128 H 11.966038 v -2.64937 h 61.365699 v 2.64937"
         style="fill:#e6e6e6;fill-opacity:1;fill-rule:nonzero;stroke:none;stroke-width:0.0352778"
         id="path2492" />
      <path
         d="m 218.0306,457.60128 h -61.36569 v -2.64937 h 61.36569 v 2.64937"
         style="fill:#e6e6e6;fill-opacity:1;fill-rule:nonzero;stroke:none;stroke-width:0.0352778"
         id="path2494" />
      <path
         d="m 26.070094,364.49969 c 0,0 2.76225,-6.67456 8.053917,-8.39964 5.295196,-1.72509 8.170335,2.99155 8.170335,4.14161 0,0 -6.903862,-1.60867 -11.278307,1.72861 0,0 5.295195,-2.53294 11.51114,-0.34572 0,0 -2.991556,4.25803 -8.173862,3.22086 -5.178778,-1.03364 -5.408084,-1.26647 -8.283223,-0.34572"
         style="fill:#ffffff;fill-opacity:1;fill-rule:nonzero;stroke:none;stroke-width:0.0352778"
         id="path2496" />
      <path
         d="m 6.0217317,374.87135 c 0,0 2.76225,-6.67808 8.0574453,-8.40316 5.291667,-1.72509 8.170334,2.99155 8.170334,4.14161 0,0 -6.903861,-1.60867 -11.278306,1.72861 0,0 5.295194,-2.53295 11.507611,-0.34572 0,0 -2.991555,4.25803 -8.170333,3.22086 -5.1787783,-1.03364 -5.4080843,-1.26295 -8.2867513,-0.3422"
         style="fill:#ffffff;fill-opacity:1;fill-rule:nonzero;stroke:none;stroke-width:0.0352778"
         id="path2498" />
      <path
         d="m 14.618927,322.47327 c 0,0 -2.374194,7.86341 1.044222,13.19036 3.414889,5.32694 9.341556,3.24556 10.170584,2.23308 0,0 -7.235472,-3.54894 -8.681861,-9.63436 0,0 2.836333,6.03956 9.877778,8.58309 0,0 0.430389,-5.89845 -4.871861,-8.71362 -5.302251,-2.81516 -5.66914,-2.77636 -7.538862,-5.65855"
         style="fill:#ffffff;fill-opacity:1;fill-rule:nonzero;stroke:none;stroke-width:0.0352778"
         id="path2500" />
      <path
         d="m 9.8035097,345.09338 c 0,0 0.9595563,6.65692 5.3410563,9.42975 4.3815,2.77283 8.060973,-0.8255 8.325556,-1.86619 0,0 -6.600473,-0.13053 -9.782528,-4.14514 0,0 4.198055,3.49955 10.308167,2.95275 0,0 -1.725084,-4.52967 -6.635751,-4.78367 -4.910666,-0.254 -5.171722,-0.0988 -7.5565003,-1.5875"
         style="fill:#ffffff;fill-opacity:1;fill-rule:nonzero;stroke:none;stroke-width:0.0352778"
         id="path2502" />
      <path
         d="m 21.928483,304.16057 c 0,0 -6.039556,5.54919 -5.813778,11.86392 0.22225,6.31825 6.374695,7.54592 7.602361,7.09789 0,0 -4.409722,-6.73453 -2.557639,-12.69647 0,0 -0.635,6.62869 4.116917,12.40366 0,0 3.372556,-4.85069 0.250473,-9.9695 -3.122084,-5.11528 -3.457223,-5.2705 -3.598334,-8.6995"
         style="fill:#ffffff;fill-opacity:1;fill-rule:nonzero;stroke:none;stroke-width:0.0352778"
         id="path2504" />
      <path
         d="m 32.6494,291.9086 c 0,0 -6.039556,5.54566 -5.813778,11.86391 0.22225,6.31473 6.374695,7.54592 7.602362,7.09437 0,0 -4.409723,-6.73101 -2.557639,-12.69648 0,0 -0.635,6.63222 4.116917,12.40367 0,0 3.376084,-4.84717 0.250472,-9.96597 -3.122084,-5.11881 -3.457223,-5.27403 -3.598334,-8.6995"
         style="fill:#ffffff;fill-opacity:1;fill-rule:nonzero;stroke:none;stroke-width:0.0352778"
         id="path2506" />
      <path
         d="m 5.4184817,344.52541 c 0,0 -4.75544404,6.68161 -3.224389,12.81289 1.531056,6.1348 7.803445,6.05719 8.9111673,5.36222 0,0 -5.7114723,-5.66914 -5.1399723,-11.88861 0,0 0.758472,6.61811 6.6075283,11.2783 0,0 2.289528,-5.44688 -1.827389,-9.80369 -4.1204453,-4.35328 -4.4802783,-4.43795 -5.3269453,-7.76111"
         style="fill:#ffffff;fill-opacity:1;fill-rule:nonzero;stroke:none;stroke-width:0.0352778"
         id="path2508" />
      <path
         d="m 71.465542,349.6301 c 0,0 -0.525639,5.55625 2.469445,8.64659 2.991555,3.09386 6.660444,0.91016 7.076722,0.12347 0,0 -5.298722,-1.39347 -7.08025,-5.25286 0,0 2.702278,3.64066 7.732889,4.39208 0,0 -0.504472,-3.98992 -4.41325,-5.15056 -3.912306,-1.16416 -4.152195,-1.09008 -5.785556,-2.75872"
         style="fill:#ffffff;fill-opacity:1;fill-rule:nonzero;stroke:none;stroke-width:0.0352778"
         id="path2510" />
      <path
         d="m 66.283236,335.1133 c 0,0 -0.525639,5.55625 2.465917,8.64658 2.991556,3.09386 6.660445,0.91017 7.076723,0.12347 0,0 -5.298723,-1.39347 -7.080251,-5.25286 0,0 2.702278,3.64067 7.736417,4.39208 0,0 -0.504472,-3.98991 -4.416778,-5.15055 -3.912306,-1.16417 -4.152194,-1.09008 -5.782028,-2.75872"
         style="fill:#ffffff;fill-opacity:1;fill-rule:nonzero;stroke:none;stroke-width:0.0352778"
         id="path2512" />
      <path
         d="m 93.570599,307.8471 c 0,0 5.249334,6.30061 4.183945,12.53067 -1.061862,6.23358 -7.32014,6.62869 -8.477251,6.02191 0,0 5.266973,-6.08541 4.22275,-12.24139 0,0 -0.254,6.65339 -5.732639,11.74398 0,0 -2.695222,-5.25639 1.0795,-9.91306 3.77825,-4.65667 4.131028,-4.76603 4.723695,-8.14211"
         style="fill:#ffffff;fill-opacity:1;fill-rule:nonzero;stroke:none;stroke-width:0.0352778"
         id="path2514" />
      <path
         d="m 37.394262,279.58254 c 0,0 3.961695,-4.31094 8.470195,-4.15219 4.5085,0.15875 5.383389,4.55083 5.062361,5.42572 0,0 -4.804833,-3.14678 -9.062861,-1.82386 0,0 4.734278,-0.45156 8.854723,2.93864 0,0 -3.460751,2.40947 -7.115529,0.17991 -3.65125,-2.22955 -3.760611,-2.46944 -6.208889,-2.56822"
         style="fill:#ffffff;fill-opacity:1;fill-rule:nonzero;stroke:none;stroke-width:0.0352778"
         id="path2516" />
      <path
         d="m 51.946346,267.07304 c 0,0 3.958167,-4.31095 8.466668,-4.1522 4.5085,0.16228 5.386917,4.55084 5.065889,5.42925 0,0 -4.804834,-3.1503 -9.062862,-1.82738 0,0 4.734278,-0.45156 8.854723,2.94216 0,0 -3.464278,2.40595 -7.115528,0.17639 -3.651251,-2.22955 -3.76414,-2.46944 -6.20889,-2.56822"
         style="fill:#ffffff;fill-opacity:1;fill-rule:nonzero;stroke:none;stroke-width:0.0352778"
         id="path2518" />
      <path
         d="m 98.244905,248.19943 c 0,0 5.796135,-0.79375 9.168695,2.20486 3.36903,2.99861 1.2453,6.93914 0.43744,7.40833 0,0 -1.69333,-5.48922 -5.81377,-7.18608 0,0 3.93347,2.67053 4.94241,7.9128 0,0 -4.20158,-0.3563 -5.59153,-4.40266 -1.393467,-4.04636 -1.32644,-4.30036 -3.143245,-5.93725"
         style="fill:#ffffff;fill-opacity:1;fill-rule:nonzero;stroke:none;stroke-width:0.0352778"
         id="path2520" />
      <path
         d="m 105.2934,278.21023 c 0,0 1.46403,9.27453 7.63059,13.05984 6.17008,3.78883 11.23597,-1.30175 11.58522,-2.7552 0,0 -9.21455,-0.06 -13.73011,-5.60564 0,0 5.92314,4.80837 14.44272,3.92995 0,0 -2.49061,-6.29003 -9.35214,-6.55108 -6.858,-0.26459 -7.22136,-0.0423 -10.57628,-2.07787"
         style="fill:#ffffff;fill-opacity:1;fill-rule:nonzero;stroke:none;stroke-width:0.0352778"
         id="path2522" />
      <path
         d="m 105.85432,262.81501 c 0,0 5.78203,0.9137 8.14211,4.75545 2.36009,3.84527 -0.81139,7.00264 -1.71802,7.22136 0,0 -0.0388,-5.74323 -3.49251,-8.55839 0,0 2.99509,3.69005 2.44828,9.00289 0,0 -3.92289,-1.55222 -4.08516,-5.82789 -0.16228,-4.27567 -0.0247,-4.50145 -1.2947,-6.59342"
         style="fill:#ffffff;fill-opacity:1;fill-rule:nonzero;stroke:none;stroke-width:0.0352778"
         id="path2524" />
      <path
         d="m 132.8524,248.83795 c 0,0 6.38175,-1.52752 10.47398,1.44992 4.09222,2.97392 2.15547,7.60589 1.30527,8.21972 0,0 -2.49413,-5.94077 -7.2778,-7.38011 0,0 4.68136,2.54706 6.38528,8.28323 0,0 -4.72723,0.0706 -6.72395,-4.29331 -2.00025,-4.36386 -1.95086,-4.65314 -4.16278,-6.27945"
         style="fill:#ffffff;fill-opacity:1;fill-rule:nonzero;stroke:none;stroke-width:0.0352778"
         id="path2526" />
      <path
         d="m 109.46677,248.05479 c 0,0 5.23522,-3.95817 10.17764,-2.87161 4.94241,1.08302 5.02355,6.10305 4.49438,7.00616 0,0 -4.66725,-4.44147 -9.63083,-3.84175 0,0 5.31283,0.45509 9.17575,5.02709 0,0 -4.30389,1.95791 -7.88458,-1.23473 -3.5807,-3.19616 -3.65478,-3.48191 -6.33236,-4.08516"
         style="fill:#ffffff;fill-opacity:1;fill-rule:nonzero;stroke:none;stroke-width:0.0352778"
         id="path2528" />
      <path
         d="m 168.58174,260.02807 c 0,0 -6.81214,-5.15056 -13.23975,-3.73945 -6.42409,1.41111 -6.53345,7.94103 -5.842,9.11578 0,0 6.06778,-5.7785 12.52361,-4.99533 0,0 -6.91092,0.58914 -11.93447,6.53697 0,0 5.59858,2.54705 10.25525,-1.60867 4.65666,-4.15572 4.75191,-4.52614 8.23736,-5.3093"
         style="fill:#ffffff;fill-opacity:1;fill-rule:nonzero;stroke:none;stroke-width:0.0352778"
         id="path2530" />
      <path
         d="m 183.64182,267.17534 c 0,0 -6.80861,-5.14702 -13.23622,-3.73944 -6.42761,1.41111 -6.53344,7.94103 -5.84553,9.11578 0,0 6.07131,-5.7785 12.52361,-4.99534 0,0 -6.90738,0.58914 -11.93094,6.53698 0,0 5.59858,2.54705 10.25172,-1.60867 4.65667,-4.15219 4.75545,-4.52614 8.23736,-5.30931"
         style="fill:#ffffff;fill-opacity:1;fill-rule:nonzero;stroke:none;stroke-width:0.0352778"
         id="path2532" />
      <path
         d="m 196.58171,277.2789 c 0,0 -2.27541,-6.47347 -7.47536,-8.52311 -5.19994,-2.04611 -8.45255,2.13783 -8.54075,3.21733 0,0 7.0732,-0.94897 11.22539,2.53295 0,0 -5.13997,-2.80106 -11.56053,-1.25942 0,0 2.68817,4.22981 7.98336,3.67947 5.29167,-0.5468 5.54214,-0.74436 8.36789,0.35278"
         style="fill:#ffffff;fill-opacity:1;fill-rule:nonzero;stroke:none;stroke-width:0.0352778"
         id="path2534" />
      <path
         d="m 196.83924,286.46876 c 0,0 -2.27894,-6.47347 -7.47889,-8.52311 -5.19994,-2.04611 -8.45255,2.13783 -8.54075,3.21733 0,0 7.07672,-0.94897 11.22539,2.53295 0,0 -5.13644,-2.80106 -11.56053,-1.25942 0,0 2.6917,4.22981 7.98336,3.67947 5.2952,-0.5468 5.54214,-0.74436 8.37142,0.35278"
         style="fill:#ffffff;fill-opacity:1;fill-rule:nonzero;stroke:none;stroke-width:0.0352778"
         id="path2536" />
      <path
         d="m 160.44668,275.13401 c 0,0 -5.78555,-5.40103 -11.8498,-4.72016 -6.06073,0.68438 -6.78745,6.69572 -6.26534,7.84225 0,0 6.15245,-4.74134 12.02973,-3.40078 0,0 -6.42762,-0.11995 -11.63109,4.88244 0,0 4.9142,2.88925 9.60967,-0.49741 4.69547,-3.38314 4.81894,-3.71828 8.10683,-4.10634"
         style="fill:#ffffff;fill-opacity:1;fill-rule:nonzero;stroke:none;stroke-width:0.0352778"
         id="path2538" />
      <path
         d="m 112.58885,298.01871 c 0,0 5.78203,0.91369 8.14211,4.75897 2.36008,3.84175 -0.81139,7.00264 -1.71803,7.22136 0,0 -0.0388,-5.74675 -3.4925,-8.55839 0,0 2.99509,3.69006 2.44828,8.99937 0,0 -3.92289,-1.55223 -4.08517,-5.8279 -0.16227,-4.27566 -0.0247,-4.50144 -1.29469,-6.59341"
         style="fill:#ffffff;fill-opacity:1;fill-rule:nonzero;stroke:none;stroke-width:0.0352778"
         id="path2540" />
      <path
         d="m 146.73421,317.78838 c 0,0 -9.86014,1.67569 -13.81831,8.29028 -3.95816,6.61458 1.524,11.94858 3.07623,12.30136 0,0 -0.0494,-9.81428 5.79966,-14.68967 0,0 -5.04472,6.36411 -4.00402,15.42697 0,0 6.6675,-2.7305 6.86152,-10.03652 0.19403,-7.30956 -0.0459,-7.69056 2.08492,-11.29242"
         style="fill:#ffffff;fill-opacity:1;fill-rule:nonzero;stroke:none;stroke-width:0.0352778"
         id="path2542" />
      <path
         d="m 161.79077,299.95899 c 0,0 -7.26723,-1.96145 -12.05795,1.31586 -4.79072,3.2773 -2.71992,8.65011 -1.76742,9.38389 0,0 3.05506,-6.731 8.59014,-8.22325 0,0 -5.45394,2.76577 -7.5953,9.28864 0,0 5.41867,0.23283 7.85283,-4.70253 2.43417,-4.93536 2.39184,-5.2705 4.9777,-7.06261"
         style="fill:#ffffff;fill-opacity:1;fill-rule:nonzero;stroke:none;stroke-width:0.0352778"
         id="path2544" />
      <path
         d="m 123.95182,334.8593 c 0,0 6.18067,2.95627 7.54944,8.05744 1.36526,5.10117 -3.24908,7.58825 -4.33916,7.52828 0,0 1.87678,-6.45583 -1.06539,-10.77031 0,0 2.13078,5.1435 -0.254,10.91848 0,0 -3.88055,-3.048 -2.63878,-7.90223 1.24178,-4.85069 1.47461,-5.05883 0.74789,-7.83166"
         style="fill:#ffffff;fill-opacity:1;fill-rule:nonzero;stroke:none;stroke-width:0.0352778"
         id="path2546" />
      <path
         d="m 137.43146,301.68054 c 0,0 6.18067,2.95275 7.54944,8.05392 1.36525,5.1047 -3.24908,7.58825 -4.33916,7.53181 0,0 1.87678,-6.45936 -1.06539,-10.77031 0,0 2.13078,5.1435 -0.254,10.91847 0,0 -3.88056,-3.05152 -2.63878,-7.90222 1.24178,-4.85422 1.47461,-5.05884 0.74789,-7.83167"
         style="fill:#ffffff;fill-opacity:1;fill-rule:nonzero;stroke:none;stroke-width:0.0352778"
         id="path2548" />
      <path
         d="m 190.55274,331.99474 c 0,0 6.61458,-1.78506 10.97492,1.19944 4.3568,2.98098 2.47297,7.87401 1.60867,8.53723 0,0 -2.77989,-6.1207 -7.82109,-7.48242 0,0 4.96711,2.51883 6.91445,8.45608 0,0 -4.93184,0.21167 -7.14728,-4.28272 -2.21545,-4.49086 -2.17664,-4.79778 -4.52967,-6.42761"
         style="fill:#ffffff;fill-opacity:1;fill-rule:nonzero;stroke:none;stroke-width:0.0352778"
         id="path2550" />
      <path
         d="m 169.47427,297.69062 c 0,0 -3.98639,2.25778 -4.66373,5.72559 -0.6738,3.4678 2.52237,4.91419 3.24556,4.82247 0,0 -1.55222,-4.22275 0.21167,-7.23547 0,0 -1.18534,3.5313 0.67733,7.27428 0,0 2.44828,-2.21545 1.39347,-5.3975 -1.0548,-3.18206 -1.21708,-3.30906 -0.8643,-5.18937"
         style="fill:#ffffff;fill-opacity:1;fill-rule:nonzero;stroke:none;stroke-width:0.0352778"
         id="path2552" />
      <path
         d="m 206.70644,299.31693 c 0,0 7.06261,4.0005 8.25852,10.14236 1.19592,6.14187 -4.46263,8.70303 -5.74675,8.54428 0,0 2.74814,-7.47889 -0.37041,-12.81642 0,0 2.0955,6.25123 -1.19945,12.87992 0,0 -4.33916,-3.92289 -2.46944,-9.55675 1.86972,-5.63386 2.159,-5.85611 1.52753,-9.19339"
         style="fill:#ffffff;fill-opacity:1;fill-rule:nonzero;stroke:none;stroke-width:0.0352778"
         id="path2554" />
      <path
         d="m 208.06463,323.41871 c 0,0 -3.9758,-7.0238 -10.08239,-8.21267 -6.10305,-1.18886 -8.64658,4.43795 -8.48783,5.71148 0,0 7.43303,-2.7305 12.7388,0.37041 0,0 -6.21594,-2.08138 -12.80583,1.19592 0,0 3.89819,4.30742 9.50031,2.45181 5.59858,-1.85914 5.82083,-2.14489 9.13694,-1.51695"
         style="fill:#ffffff;fill-opacity:1;fill-rule:nonzero;stroke:none;stroke-width:0.0352778"
         id="path2556" />
      <path
         d="m 220.98688,332.6756 c 0,0 3.00567,-5.86669 1.07597,-10.56569 -1.92969,-4.699 -6.91091,-3.90878 -7.70819,-3.22792 0,0 5.19994,3.84528 5.46453,8.85825 0,0 -1.36878,-5.17525 -6.56167,-8.20208 0,0 -1.19239,4.59669 2.58939,7.58472 3.78178,2.9845 4.07811,3.00919 5.13997,5.55272"
         style="fill:#ffffff;fill-opacity:1;fill-rule:nonzero;stroke:none;stroke-width:0.0352778"
         id="path2558" />
      <path
         d="m 181.5428,292.05676 c 0,0 -8.18092,6.36764 -8.54781,14.351 -0.36689,7.98337 7.25664,10.16353 8.85119,9.72256 0,0 -4.8648,-8.93586 -1.91911,-16.25953 0,0 -1.48166,8.29028 3.91584,16.05139 0,0 4.74839,-5.76439 1.34055,-12.53419 -3.41136,-6.76981 -3.81705,-6.99912 -3.64066,-11.33123"
         style="fill:#ffffff;fill-opacity:1;fill-rule:nonzero;stroke:none;stroke-width:0.0352778"
         id="path2560" />
      <path
         d="m 188.22441,287.79168 c 0,0 -3.46075,2.69522 -3.61598,6.07131 -0.15522,3.37608 3.06917,4.30036 3.74298,4.11338 0,0 -2.0567,-3.78177 -0.81139,-6.87916 0,0 -0.62795,3.50661 1.65453,6.79097 0,0 2.01083,-2.43769 0.56797,-5.30225 -1.44286,-2.86456 -1.6122,-2.95981 -1.53811,-4.79425"
         style="fill:#ffffff;fill-opacity:1;fill-rule:nonzero;stroke:none;stroke-width:0.0352778"
         id="path2562" />
      <path
         d="m 174.5578,280.77493 c 0,0 -3.46075,2.69522 -3.61598,6.0713 -0.15522,3.37609 3.0727,4.30037 3.7465,4.11339 0,0 -2.06022,-3.78177 -0.81139,-6.87916 0,0 -0.62794,3.50661 1.65453,6.79097 0,0 2.01084,-2.43769 0.56797,-5.30225 -1.44286,-2.86103 -1.61572,-2.95981 -1.54163,-4.79425"
         style="fill:#ffffff;fill-opacity:1;fill-rule:nonzero;stroke:none;stroke-width:0.0352778"
         id="path2564" />
      <path
         d="m 153.82152,280.77493 c 0,0 -3.46075,2.69522 -3.61598,6.0713 -0.15522,3.37609 3.06917,4.30037 3.74298,4.11339 0,0 -2.0567,-3.78177 -0.81139,-6.87916 0,0 -0.62442,3.50661 1.65805,6.79097 0,0 2.00731,-2.43769 0.56445,-5.30225 -1.44286,-2.86103 -1.6122,-2.95981 -1.53811,-4.79425"
         style="fill:#ffffff;fill-opacity:1;fill-rule:nonzero;stroke:none;stroke-width:0.0352778"
         id="path2566" />
      <path
         d="m 198.9171,285.77732 c 0,0 6.46642,8.00805 5.01298,15.80797 -1.45345,7.79992 -9.31687,8.18092 -10.7562,7.39422 0,0 6.72394,-7.53533 5.53508,-15.28233 0,0 -0.4445,8.34672 -7.41891,14.6297 0,0 -3.28789,-6.64634 1.54164,-12.41778 4.82952,-5.77145 5.27402,-5.90198 6.08541,-10.13178"
         style="fill:#ffffff;fill-opacity:1;fill-rule:nonzero;stroke:none;stroke-width:0.0352778"
         id="path2568" />
      <path
         d="m 148.09946,288.36671 c 0,0 1.67922,6.23711 -1.13242,10.3505 -2.81164,4.10986 -7.42597,2.33539 -8.05391,1.51694 0,0 5.77497,-2.62114 7.05555,-7.37305 0,0 -2.37066,4.68136 -7.97278,6.51933 0,0 -0.20108,-4.64961 4.03931,-6.74158 4.23686,-2.08845 4.52614,-2.05317 6.06425,-4.27214"
         style="fill:#ffffff;fill-opacity:1;fill-rule:nonzero;stroke:none;stroke-width:0.0352778"
         id="path2570" />
      <path
         d="m 172.92091,335.47666 c 0,0 -5.48217,-3.42548 -10.23409,-1.9297 -4.75191,1.49225 -4.39208,6.42409 -3.79589,7.2637 0,0 4.191,-4.7625 9.10873,-4.60375 0,0 -5.1682,0.90664 -8.55839,5.72911 0,0 4.39208,1.54517 7.62352,-1.90147 3.23498,-3.44664 3.28084,-3.73239 5.85612,-4.55789"
         style="fill:#ffffff;fill-opacity:1;fill-rule:nonzero;stroke:none;stroke-width:0.0352778"
         id="path2572" />
      <path
         d="m 163.45235,284.92712 c 0,0 1.05128,3.90173 -0.70556,6.47348 -1.76036,2.56822 -4.64608,1.45697 -5.03766,0.94897 0,0 3.61244,-1.64042 4.41325,-4.61081 0,0 -1.4852,2.92806 -4.98475,4.07459 0,0 -0.127,-2.90689 2.52236,-4.21217 2.64936,-1.30881 2.82928,-1.28411 3.79236,-2.67406"
         style="fill:#ffffff;fill-opacity:1;fill-rule:nonzero;stroke:none;stroke-width:0.0352778"
         id="path2574" />
      <path
         d="m 91.732627,284.92007 c 0,0 6.512278,3.01272 8.011583,8.33614 1.49931,5.32694 -3.302,7.99041 -4.445,7.94455 0,0 1.880306,-6.79097 -1.252361,-11.26772 0,0 2.296583,5.3587 -0.127,11.44058 0,0 -4.106334,-3.14325 -2.868084,-8.24441 1.241778,-5.09764 1.478139,-5.31636 0.680862,-8.20914"
         style="fill:#ffffff;fill-opacity:1;fill-rule:nonzero;stroke:none;stroke-width:0.0352778"
         id="path2576" />
      <path
         d="m 88.18721,251.37443 c 0,0 -5.838473,0.4198 -8.516056,4.05341 -2.677584,3.63009 0.218722,7.04498 1.104194,7.33778 0,0 0.522111,-5.71853 4.201584,-8.2303 0,0 -3.294945,3.42547 -3.199695,8.75947 0,0 4.039306,-1.21356 4.561417,-5.461 0.525639,-4.24745 0.405694,-4.48381 1.848556,-6.45936"
         style="fill:#ffffff;fill-opacity:1;fill-rule:nonzero;stroke:none;stroke-width:0.0352778"
         id="path2578" />
      <path
         d="m 86.804321,273.9769 c 0,0 -7.944556,4.2792 -9.41564,11.07722 -1.474611,6.79803 4.755445,9.77548 6.184195,9.63084 0,0 -2.878667,-8.37848 0.712611,-14.23811 0,0 -2.472972,6.90033 1.033639,14.34747 0,0 4.914195,-4.25803 2.966861,-10.5657 -1.943805,-6.30414 -2.257777,-6.55814 -1.481666,-10.25172"
         style="fill:#ffffff;fill-opacity:1;fill-rule:nonzero;stroke:none;stroke-width:0.0352778"
         id="path2580" />
      <path
         d="m 76.083403,255.59718 c 0,0 -7.944556,4.27919 -9.415639,11.07722 -1.474611,6.79803 4.755445,9.77547 6.184195,9.63083 0,0 -2.878667,-8.37847 0.712611,-14.23811 0,0 -2.472972,6.90034 1.033639,14.34748 0,0 4.910667,-4.25803 2.966861,-10.5657 -1.943806,-6.30414 -2.261306,-6.55814 -1.481667,-10.25172"
         style="fill:#ffffff;fill-opacity:1;fill-rule:nonzero;stroke:none;stroke-width:0.0352778"
         id="path2582" />
      <path
         d="m 47.868235,271.05237 c 0,0 12.770556,-1.76389 20.203585,4.83659 7.433028,6.60047 2.758722,15.28586 0.98425,16.32303 0,0 -3.742973,-12.0897 -12.827001,-15.81856 0,0 8.674806,5.87375 10.907889,17.42017 0,0 -9.256889,-0.77259 -12.329584,-9.68375 -3.076222,-8.91117 -2.928055,-9.47562 -6.939139,-13.07748"
         style="fill:#ffffff;fill-opacity:1;fill-rule:nonzero;stroke:none;stroke-width:0.0352778"
         id="path2584" />
      <path
         d="m 112.82874,255.4349 c 0,0 14.66144,-2.02494 23.19161,5.55272 8.53369,7.57414 3.16442,17.54364 1.13242,18.7325 0,0 -4.29684,-13.87475 -14.72495,-18.15394 0,0 9.95539,6.74158 12.52008,19.99192 0,0 -10.62566,-0.88548 -14.15344,-11.1125 -3.52778,-10.23056 -3.35844,-10.87614 -7.96572,-15.0107"
         style="fill:#ffffff;fill-opacity:1;fill-rule:nonzero;stroke:none;stroke-width:0.0352778"
         id="path2586" />
      <path
         d="m 227.07583,335.05332 c 0,0 -1.25589,10.61156 -8.10331,15.19414 -6.84742,4.57906 -12.83758,-0.98425 -13.29972,-2.62466 0,0 10.48103,-0.47273 15.37053,-6.98148 0,0 -6.52287,5.72912 -16.25248,5.10823 0,0 2.55411,-7.2637 10.34698,-7.86695 7.78933,-0.59972 8.20914,-0.36689 11.938,-2.82928"
         style="fill:#ffffff;fill-opacity:1;fill-rule:nonzero;stroke:none;stroke-width:0.0352778"
         id="path2588" />
      <path
         d="m 188.53132,335.94938 c 0,0 3.94053,6.96031 1.83445,12.75644 -2.10256,5.79614 -8.18092,5.08706 -9.18634,4.30389 0,0 6.11364,-4.92477 6.1842,-11.01725 0,0 -1.40053,6.34648 -7.54592,10.27642 0,0 -1.67569,-5.51392 2.76225,-9.32744 4.43442,-3.81 4.79073,-3.85587 5.95136,-6.99206"
         style="fill:#ffffff;fill-opacity:1;fill-rule:nonzero;stroke:none;stroke-width:0.0352778"
         id="path2590" />
      <path
         d="m 159.71996,359.89594 c 0,0 2.13783,-7.7082 7.72231,-10.31875 5.588,-2.61056 9.38389,2.18722 9.53911,3.45016 0,0 -7.80697,-0.83961 -12.16378,3.41842 0,0 5.47864,-3.49603 12.60475,-1.92969 0,0 -2.71639,5.08352 -8.5478,4.64255 -5.83142,-0.44097 -6.11717,-0.66322 -9.15459,0.73731"
         style="fill:#ffffff;fill-opacity:1;fill-rule:nonzero;stroke:none;stroke-width:0.0352778"
         id="path2592" />
      <path
         d="m 37.545957,280.50329 c 0,0 -2.264834,10.3117 2.638777,16.80633 4.90714,6.49464 12.301362,3.24203 13.264446,1.85914 0,0 -9.627306,-3.83822 -12.08264,-11.4935 0,0 4.229806,7.45773 13.51139,10.02948 0,0 -0.02822,-7.60589 -7.104945,-10.6927 -7.076723,-3.08681 -7.545917,-3.00214 -10.227028,-6.50875"
         style="fill:#ffffff;fill-opacity:1;fill-rule:nonzero;stroke:none;stroke-width:0.0352778"
         id="path2594" />
      <path
         d="m 46.245457,301.35246 c 0,0 6.039556,5.54919 5.813778,11.86392 -0.22225,6.31825 -6.374695,7.54592 -7.602361,7.09789 0,0 4.409722,-6.73453 2.557639,-12.69648 0,0 0.635,6.6287 -4.116917,12.40367 0,0 -3.372556,-4.85069 -0.250473,-9.9695 3.122084,-5.11528 3.457223,-5.2705 3.598334,-8.6995"
         style="fill:#ffffff;fill-opacity:1;fill-rule:nonzero;stroke:none;stroke-width:0.0352778"
         id="path2596" />
      <path
         d="m 54.334652,295.13299 c 0,0 8.110362,1.19591 11.475862,6.54402 3.361972,5.35164 -1.037167,9.82487 -2.303639,10.14237 0,0 -0.134056,-8.04687 -5.016501,-11.93801 0,0 4.250973,5.12587 3.559528,12.57301 0,0 -5.513917,-2.11667 -5.806722,-8.10331 -0.289278,-5.99017 -0.102306,-6.30767 -1.908528,-9.21808"
         style="fill:#ffffff;fill-opacity:1;fill-rule:nonzero;stroke:none;stroke-width:0.0352778"
         id="path2598" />
      <path
         d="m 101.01774,321.78535 c 0,0 6.06072,1.17828 8.40669,5.31989 2.34598,4.14514 -1.12183,7.35542 -2.08491,7.54944 0,0 0.17638,-6.05719 -3.36198,-9.15458 0,0 3.01978,4.00403 2.24367,9.58145 0,0 -4.07458,-1.78153 -4.08517,-6.29709 -0.0141,-4.51555 0.14111,-4.74486 -1.1183,-6.99911"
         style="fill:#ffffff;fill-opacity:1;fill-rule:nonzero;stroke:none;stroke-width:0.0352778"
         id="path2600" />
      <path
         d="m 129.02124,294.65321 c 0,0 4.28625,2.92805 4.71664,6.90386 0.43039,3.97933 -3.31259,5.30225 -4.12045,5.13292 0,0 2.15195,-4.61434 0.45156,-8.18445 0,0 0.99836,4.09575 -1.45698,8.14211 0,0 -2.55058,-2.7305 -1.05833,-6.21947 1.49578,-3.48897 1.68981,-3.61597 1.46756,-5.77497"
         style="fill:#ffffff;fill-opacity:1;fill-rule:nonzero;stroke:none;stroke-width:0.0352778"
         id="path2602" />
      <path
         d="m 134.20707,282.55646 c 0,0 4.28272,2.92805 4.71311,6.90386 0.43392,3.97933 -3.30905,5.30225 -4.12044,5.13292 0,0 2.15547,-4.61434 0.45508,-8.18445 0,0 0.99836,4.09575 -1.45697,8.14211 0,0 -2.55411,-2.73403 -1.05833,-6.21947 1.49225,-3.48897 1.6898,-3.61597 1.46755,-5.77497"
         style="fill:#ffffff;fill-opacity:1;fill-rule:nonzero;stroke:none;stroke-width:0.0352778"
         id="path2604" />
      <path
         d="m 34.670817,328.92205 c 0,0 -2.504722,8.30791 1.104195,13.93825 3.608917,5.63033 9.874251,3.43252 10.74914,2.36008 0,0 -7.648223,-3.75003 -9.175751,-10.18117 0,0 2.998611,6.38175 10.438695,9.07345 0,0 0.455083,-6.23711 -5.147028,-9.21103 -5.605639,-2.97392 -5.993695,-2.93511 -7.969251,-5.97958"
         style="fill:#ffffff;fill-opacity:1;fill-rule:nonzero;stroke:none;stroke-width:0.0352778"
         id="path2606" />
      <path
         d="m 51.63943,330.01918 c 0,0 -1.718028,5.70089 0.758472,9.56381 2.4765,3.86292 6.773334,2.35303 7.373056,1.61925 0,0 -5.245806,-2.57528 -6.293556,-6.985 0,0 2.056695,4.37797 7.161389,6.223 0,0 0.313973,-4.27567 -3.531305,-6.31825 -3.845279,-2.03906 -4.11339,-2.01436 -5.468056,-4.10281"
         style="fill:#ffffff;fill-opacity:1;fill-rule:nonzero;stroke:none;stroke-width:0.0352778"
         id="path2608" />
      <path
         d="m 54.75093,345.22744 c 0,0 -1.721556,5.70088 0.758472,9.5638 2.4765,3.86292 6.773334,2.35303 7.373056,1.61925 0,0 -5.245806,-2.57528 -6.293556,-6.985 0,0 2.056695,4.37797 7.161389,6.223 0,0 0.313973,-4.27567 -3.531305,-6.31825 -3.845278,-2.04258 -4.113389,-2.01436 -5.468056,-4.1028"
         style="fill:#ffffff;fill-opacity:1;fill-rule:nonzero;stroke:none;stroke-width:0.0352778"
         id="path2610" />
      <path
         d="m 74.368903,294.88251 c 0,0 -2.786944,9.23573 1.227667,15.49753 4.011084,6.25828 10.978445,3.81353 11.948584,2.62467 0,0 -8.501945,-4.17336 -10.202334,-11.32064 0,0 3.33375,7.09436 11.609918,10.08592 0,0 0.504472,-6.93209 -5.725584,-10.24114 -6.230056,-3.30553 -6.663973,-3.2632 -8.858251,-6.64634"
         style="fill:#ffffff;fill-opacity:1;fill-rule:nonzero;stroke:none;stroke-width:0.0352778"
         id="path2612" />
      <path
         d="m 93.789321,250.4819 c 0,0 -8.66775,9.96597 -7.1755,20.03778 1.49225,10.0718 11.564056,10.93258 13.447889,9.99067 0,0 -8.272639,-9.98362 -6.378222,-19.86492 0,0 0.176389,10.72797 8.826502,19.11703 0,0 4.52614,-8.37142 -1.39347,-16.002 -5.919615,-7.63059 -6.48406,-7.82109 -7.327199,-13.27856"
         style="fill:#ffffff;fill-opacity:1;fill-rule:nonzero;stroke:none;stroke-width:0.0352778"
         id="path2614" />
      <path
         d="m 7.6762597,379.07647 c 0,0 5.1117513,7.80697 12.2484453,8.72772 7.136695,0.91722 9.652001,-5.76439 9.376834,-7.22489 0,0 -8.378473,3.70417 -14.732001,0.51858 0,0 7.327195,1.94381 14.689668,-2.32833 0,0 -4.822473,-4.68489 -11.147779,-2.12725 -6.325305,2.56117 -6.561667,2.91042 -10.4351673,2.43417"
         style="fill:#ffffff;fill-opacity:1;fill-rule:nonzero;stroke:none;stroke-width:0.0352778"
         id="path2616" />
      <path
         d="m 196.17602,379.43983 c 0,0 5.47511,8.36436 13.11628,9.34861 7.64116,0.98425 10.33639,-6.17361 10.04005,-7.73642 0,0 -8.97114,3.96875 -15.77622,0.55739 0,0 7.84931,2.07786 15.73389,-2.49414 0,0 -5.16467,-5.02003 -11.938,-2.27894 -6.77333,2.74461 -7.02733,3.11502 -11.176,2.6035"
         style="fill:#ffffff;fill-opacity:1;fill-rule:nonzero;stroke:none;stroke-width:0.0352778"
         id="path2618" />
      <path
         d="m 27.167233,389.77974 c 0,0 7.747001,2.51884 13.102168,-0.75847 5.358695,-3.2773 3.414889,-9.20044 2.427111,-10.04358 0,0 -3.672417,7.10141 -9.736667,8.41022 0,0 6.046612,-2.68817 8.720667,-9.62025 0,0 -5.842,-0.55033 -8.745362,4.65314 -2.903361,5.19994 -2.875139,5.56683 -5.767917,7.35894"
         style="fill:#ffffff;fill-opacity:1;fill-rule:nonzero;stroke:none;stroke-width:0.0352778"
         id="path2620" />
      <path
         d="m 222.07697,376.88219 c 0,0 -1.10773,-7.04498 -5.78909,-9.92717 -4.68489,-2.88219 -8.53722,0.98072 -8.80533,2.08492 0,0 7.00264,0.0529 10.42811,4.26861 0,0 -4.49439,-3.65831 -10.96786,-2.99509 0,0 1.88736,4.78014 7.09789,4.98476 5.21052,0.20108 5.48569,0.0353 8.03628,1.58397"
         style="fill:#ffffff;fill-opacity:1;fill-rule:nonzero;stroke:none;stroke-width:0.0352778"
         id="path2622" />
      <path
         d="m 223.02947,367.59355 c 0,0 5.27755,-4.79778 5.11175,-10.29406 -0.16581,-5.49275 -5.51039,-6.58989 -6.57931,-6.20536 0,0 3.80294,5.87728 2.16606,11.05606 0,0 0.58208,-5.76439 -3.52778,-10.80912 0,0 -2.95628,4.20512 -0.26106,8.67128 2.6917,4.46264 2.9845,4.60023 3.09034,7.5812"
         style="fill:#ffffff;fill-opacity:1;fill-rule:nonzero;stroke:none;stroke-width:0.0352778"
         id="path2624" />
      <path
         d="m 213.02469,359.47966 c 0,0 -4.49086,-5.54567 -9.98714,-5.69031 -5.49628,-0.14816 -6.89328,5.12586 -6.57225,6.21595 0,0 6.08541,-3.46428 11.16189,-1.53459 0,0 -5.72206,-0.91016 -10.99256,2.90689 0,0 4.02872,3.18911 8.64306,0.75495 4.6108,-2.43417 4.7625,-2.71639 7.747,-2.65289"
         style="fill:#ffffff;fill-opacity:1;fill-rule:nonzero;stroke:none;stroke-width:0.0352778"
         id="path2626" />
      <path
         d="m 109.14927,410.73827 c 0,0 7.65527,-31.64417 -41.186812,-42.17106 -4.318,-0.93133 -8.815917,-0.98425 -13.081,0.17287 -2.353028,0.63852 -4.78014,1.651 -6.678084,3.26319 -5.415139,4.60375 -24.648585,2.70933 -24.648585,2.70933 0,0 15.441084,0 23.565557,-5.95841 0,0 -28.440947,3.24908 -33.587974,-10.02242 0,0 10.833806,13.54314 36.297308,4.064 l -5.609168,-4.58964 c -2.106083,-1.72508 -4.699,-2.7305 -7.415389,-2.90336 -5.083528,-0.32456 -13.22564,-1.21356 -14.333362,-3.61245 0,0 7.041445,1.89442 14.626168,0.81139 0,0 -8.93939,-10.8338 -25.731613,-10.29405 0,0 18.961806,-5.95842 37.920086,13.81478 0,0 4.607278,5.95841 20.316473,4.60375 15.709196,-1.35467 28.712585,7.04497 28.712585,7.04497 0,0 -3.792361,-14.89781 -14.358056,-16.25247 -10.562167,-1.35467 -31.69003,-4.87539 -33.856086,-10.02242 0,0 8.897057,6.09953 25.950335,5.00592 1.633362,-0.10584 3.273778,-0.10584 4.896556,0.1023 1.834445,0.23636 4.085167,0.70908 5.718528,1.66158 0,0 -12.73175,-17.06386 -28.169307,-17.3355 -15.441084,-0.26811 -33.859614,-2.7058 -35.75403,-9.2075 0,0 5.147028,7.04145 30.063724,5.14703 0,0 -18.14689,-7.04497 -21.667613,-15.71272 0,0 6.501696,9.21103 25.459974,14.62969 18.961807,5.41514 24.648585,10.02242 24.648585,10.02242 0,0 1.626306,-5.69031 -7.041445,-12.46011 -8.66775,-6.77334 -17.063862,-7.85636 -18.418528,-15.98437 0,0 -0.811389,4.06401 19.773195,13.27504 0,0 -5.147028,-10.02242 -8.939389,-10.83381 0,0 7.044972,1.35114 14.626167,15.16592 4.43089,8.06802 7.104945,12.53419 8.561918,14.85194 0.5715,0.90664 1.957916,0.6985 2.226027,-0.33866 0.846667,-3.23851 1.950862,-9.05934 0.860778,-14.51328 0,0 3.249084,8.12447 1.583973,18.14336 -0.257528,1.54517 0.127,3.13267 1.125361,4.34622 2.229556,2.70228 5.958413,7.62706 5.958413,10.287 0,0 4.64961,-10.71386 9.58145,-16.59819 1.92617,-2.29659 2.86103,-5.26698 2.43417,-8.23031 -0.45156,-3.15383 -1.79212,-7.24958 -5.24228,-11.46881 -7.31661,-8.93939 -11.105448,-14.08642 -10.565697,-19.77319 0,0 1.855611,6.9603 7.926917,12.93283 0.61736,0.61031 1.67217,0.19756 1.71097,-0.67028 0.20108,-4.39561 -0.0459,-14.5168 -6.11717,-18.49261 0,0 8.29381,3.68653 8.94645,17.21909 0.11994,2.51177 0.89606,4.953 2.32128,7.02733 l 0.65264,0.94545 c 0,0 2.43769,-10.02242 1.89441,-14.62617 0,0 2.16606,14.08289 1.08303,17.87525 -1.08303,3.79236 1.89795,9.21103 1.89795,9.21103 0,0 12.99985,-13.54314 16.52058,-26.2749 0,0 -8.12448,25.73162 -17.06386,36.29731 -8.93939,10.56217 -8.12448,34.12773 -2.70934,36.56542 0,0 15.44109,-30.33536 29.25586,-38.735 l 0.14464,-0.0882 c 2.4765,-1.53811 3.90173,-4.28273 3.8347,-7.19667 -0.14111,-6.20536 1.58044,-16.61231 13.08453,-23.68198 0,0 -6.5017,8.84767 -6.32178,12.46012 0,0 6.32178,-4.87539 13.00339,-6.14186 6.68161,-1.26295 8.30439,-6.68162 8.30439,-6.68162 0,0 -1.8027,8.128 -14.986,12.64356 -13.18331,4.51203 -7.94456,12.64003 -7.94456,12.64003 0,0 10.47397,-7.76464 23.114,-8.66775 12.64003,-0.90311 20.40467,-11.37709 20.40467,-11.37709 0,0 -8.30792,10.11062 -13.54314,11.73692 0,0 14.26633,3.06917 21.12786,-1.6263 0,0 -14.80961,7.04497 -31.42192,5.95841 -16.6123,-1.08302 -24.19703,15.34937 -24.19703,15.34937 0,0 23.11401,1.08655 34.12773,-4.69195 0,0 -17.51542,9.02758 -29.25234,9.38742 -11.73691,0.36336 -23.114,21.12786 -23.114,21.12786 0,0 17.3355,-7.22136 33.58798,-8.30439 16.25247,-1.08655 36.2973,-18.96181 36.2973,-18.96181 0,0 14.62617,-7.22488 20.58459,-3.24908 0,0 -11.19717,-1.6263 -26.00325,11.01372 l 13.1833,-0.17991 -12.93989,2.55764 c -2.25777,0.44802 -4.38502,1.36172 -6.25827,2.69169 -3.66889,2.61056 -9.87778,6.84742 -11.50056,6.84742 0,0 32.86478,5.41866 41.71245,-7.22136 0,0 -11.37709,13.90297 -30.15545,12.46011 0,0 13.72306,6.50169 21.85106,5.59858 0,0 -19.14173,1.8027 -25.64342,-3.43253 -6.36411,-5.12586 -76.59864,6.8827 -56.49384,34.50167 0.94897,1.30175 1.41817,2.89278 1.41817,4.50498 v 0 l -20.94794,-0.0917"
         style="fill:#e6e6e6;fill-opacity:1;fill-rule:nonzero;stroke:none;stroke-width:0.0352778"
         id="path2628" />
      <path
         d="M 49.374596,415.15858 H 198.02105 c 0,0 -77.43473,-14.25928 -148.646454,0"
         style="fill:#ffffff;fill-opacity:1;fill-rule:nonzero;stroke:none;stroke-width:0.0352778"
         id="path2630" />
    </g>
  </g>
</svg>
