<?xml version="1.0" encoding="UTF-8" standalone="no"?>
<!-- Created with Inkscape (http://www.inkscape.org/) -->

<svg
   width="309.12424mm"
   height="215.57016mm"
   viewBox="0 0 309.12423 215.57016"
   version="1.1"
   id="svg3241"
   inkscape:version="1.2.1 (8a69933317, 2022-10-28, custom)"
   sodipodi:docname="logo.svg"
   xmlns:inkscape="http://www.inkscape.org/namespaces/inkscape"
   xmlns:sodipodi="http://sodipodi.sourceforge.net/DTD/sodipodi-0.dtd"
   xmlns="http://www.w3.org/2000/svg"
   xmlns:svg="http://www.w3.org/2000/svg">
  <sodipodi:namedview
     id="namedview3243"
     pagecolor="#ffffff"
     bordercolor="#666666"
     borderopacity="1.0"
     inkscape:showpageshadow="2"
     inkscape:pageopacity="0.0"
     inkscape:pagecheckerboard="0"
     inkscape:deskcolor="#d1d1d1"
     inkscape:document-units="mm"
     showgrid="false"
     inkscape:zoom="0.57848045"
     inkscape:cx="845.31811"
     inkscape:cy="612.81241"
     inkscape:window-width="1848"
     inkscape:window-height="1016"
     inkscape:window-x="72"
     inkscape:window-y="27"
     inkscape:window-maximized="1"
     inkscape:current-layer="g811" />
  <defs
     id="defs3238">
    <rect
       x="-115.9248"
       y="1197.6426"
       width="1066.0822"
       height="266.94397"
       id="rect3761" />
    <rect
       x="-115.9248"
       y="1197.6426"
       width="1066.0822"
       height="266.94397"
       id="rect5201" />
  </defs>
  <g
     inkscape:label="Layer 1"
     inkscape:groupmode="layer"
     id="layer1"
     transform="translate(65.132954,-35.056379)">
    <g
       id="g811"
       transform="translate(11.312739,10.77851)">
      <path
         d="m -1.9364207,142.61115 c 0,0 2.48602515,-6.0071 7.2485254,-7.55968 4.7656753,-1.55258 7.3533013,2.6924 7.3533013,3.72745 0,0 -6.2134762,-1.4478 -10.1504764,1.55575 0,0 4.7656751,-2.27964 10.3600254,-0.31115 0,0 -2.6924,3.83223 -7.3564752,2.89878 -4.6609003,-0.93028 -4.86727534,-1.13983 -7.4549005,-0.31115"
         style="fill:#1f6534;fill-opacity:1;fill-rule:nonzero;stroke:none;stroke-width:0.03175"
         id="path2496" />
      <path
         d="m -19.979947,151.94564 c 0,0 2.486025,-6.01027 7.2517,-7.56284 4.762501,-1.55258 7.3533011,2.69239 7.3533011,3.72745 0,0 -6.2134751,-1.4478 -10.1504751,1.55575 0,0 4.765675,-2.27966 10.3568502,-0.31115 0,0 -2.6924003,3.83223 -7.3533002,2.89877 -4.6609,-0.93027 -4.867276,-1.13665 -7.458076,-0.30798"
         style="fill:#1f6534;fill-opacity:1;fill-rule:nonzero;stroke:none;stroke-width:0.03175"
         id="path2498" />
      <path
         d="m -12.242472,104.78737 c 0,0 -2.136774,7.07707 0.939801,11.87133 3.0734,4.79424 8.4074003,2.921 9.1535253,2.00977 0,0 -6.5119254,-3.19405 -7.8136755,-8.67093 0,0 2.5527002,5.43561 8.8900006,7.72478 0,0 0.38735001,-5.3086 -4.3846753,-7.84225 -4.7720251,-2.53365 -5.1022251,-2.49873 -6.7849761,-5.0927"
         style="fill:#1f6534;fill-opacity:1;fill-rule:nonzero;stroke:none;stroke-width:0.03175"
         id="path2500" />
      <path
         d="m -16.576347,125.14547 c 0,0 0.863601,5.99123 4.806951,8.48678 3.94335,2.49554 7.2548751,-0.74295 7.4930002,-1.67958 0,0 -5.9404252,-0.11747 -8.8042752,-3.73062 0,0 3.7782499,3.14959 9.2773502,2.65747 0,0 -1.5525751,-4.0767 -5.9721754,-4.3053 -4.4195998,-0.2286 -4.6545508,-0.0889 -6.8008508,-1.42875"
         style="fill:#1f6534;fill-opacity:1;fill-rule:nonzero;stroke:none;stroke-width:0.03175"
         id="path2502" />
      <path
         d="m -5.6638709,88.305944 c 0,0 -5.4356001,4.994275 -5.2324001,10.677526 0.200025,5.68642 5.7372251,6.79133 6.8421252,6.3881 0,0 -3.9687503,-6.061076 -2.3018751,-11.426822 0,0 -0.5715,5.965821 3.7052252,11.163292 0,0 3.03530019,-4.36562 0.225425,-8.972548 -2.8098752,-4.603749 -3.1115002,-4.743448 -3.2385002,-7.829548"
         style="fill:#1f6534;fill-opacity:1;fill-rule:nonzero;stroke:none;stroke-width:0.03175"
         id="path2504" />
      <path
         d="m 3.9849547,77.279168 c 0,0 -5.4356003,4.9911 -5.2324003,10.677525 0.200025,5.683252 5.7372253,6.791323 6.8421254,6.384928 0,0 -3.9687502,-6.057903 -2.3018752,-11.426828 0,0 -0.5715,5.969 3.7052253,11.163299 0,0 3.0384761,-4.362449 0.2254248,-8.969374 -2.8098749,-4.606925 -3.1115,-4.746625 -3.2385,-7.82955"
         style="fill:#1f6534;fill-opacity:1;fill-rule:nonzero;stroke:none;stroke-width:0.03175"
         id="path2506" />
      <path
         d="m -20.522872,124.6343 c 0,0 -4.2799,6.01345 -2.90195,11.5316 1.37795,5.52132 7.0231,5.45147 8.02005,4.826 0,0 -5.140325,-5.10223 -4.625975,-10.69975 0,0 0.682625,5.9563 5.946776,10.15047 0,0 2.060575,-4.90219 -1.644651,-8.82332 -3.7084,-3.91796 -4.03225,-3.99416 -4.79425,-6.985"
         style="fill:#1f6534;fill-opacity:1;fill-rule:nonzero;stroke:none;stroke-width:0.03175"
         id="path2508" />
      <path
         d="m 38.919482,129.22852 c 0,0 -0.473075,5.00062 2.2225,7.78193 2.6924,2.78447 5.9944,0.81914 6.36905,0.11112 0,0 -4.76885,-1.25412 -6.372225,-4.72757 0,0 2.43205,3.27659 6.9596,3.95287 0,0 -0.454024,-3.59093 -3.971925,-4.6355 -3.521075,-1.04775 -3.736975,-0.98108 -5.207,-2.48285"
         style="fill:#1f6534;fill-opacity:1;fill-rule:nonzero;stroke:none;stroke-width:0.03175"
         id="path2510" />
      <path
         d="m 34.255407,116.1634 c 0,0 -0.473076,5.00062 2.219325,7.78192 2.6924,2.78447 5.9944,0.81915 6.369051,0.11112 0,0 -4.768851,-1.25412 -6.372226,-4.72757 0,0 2.43205,3.2766 6.962775,3.95287 0,0 -0.454025,-3.59092 -3.9751,-4.63549 -3.521076,-1.04776 -3.736975,-0.98108 -5.203825,-2.48285"
         style="fill:#1f6534;fill-opacity:1;fill-rule:nonzero;stroke:none;stroke-width:0.03175"
         id="path2512" />
      <path
         d="m 58.814033,91.623819 c 0,0 4.724401,5.670549 3.765551,11.277601 -0.955676,5.61022 -6.588126,5.96582 -7.629526,5.41972 0,0 4.740276,-5.47687 3.800475,-11.01725 0,0 -0.2286,5.98805 -5.159375,10.56958 0,0 -2.4257,-4.73075 0.97155,-8.921752 3.400425,-4.191003 3.717925,-4.289427 4.251325,-7.327899"
         style="fill:#1f6534;fill-opacity:1;fill-rule:nonzero;stroke:none;stroke-width:0.03175"
         id="path2514" />
      <path
         d="m 8.2553299,66.185718 c 0,0 3.5655251,-3.879851 7.6231751,-3.736976 4.05765,0.142875 4.845051,4.09575 4.556125,4.88315 0,0 -4.324349,-2.8321 -8.156575,-1.641475 0,0 4.260851,-0.4064 7.969251,2.644775 0,0 -3.114676,2.168526 -6.403976,0.161925 -3.286125,-2.0066 -3.38455,-2.2225 -5.5880001,-2.311399"
         style="fill:#1f6534;fill-opacity:1;fill-rule:nonzero;stroke:none;stroke-width:0.03175"
         id="path2516" />
      <path
         d="m 21.352206,54.927167 c 0,0 3.56235,-3.879851 7.620001,-3.736976 4.05765,0.14605 4.848225,4.095751 4.5593,4.886325 0,0 -4.324351,-2.835274 -8.156576,-1.64465 0,0 4.26085,-0.406399 7.969251,2.64795 0,0 -3.11785,2.165351 -6.403975,0.15875 -3.286126,-2.0066 -3.387726,-2.222499 -5.588001,-2.311399"
         style="fill:#1f6534;fill-opacity:1;fill-rule:nonzero;stroke:none;stroke-width:0.03175"
         id="path2518" />
      <path
         d="m 63.020909,37.940915 c 0,0 5.216525,-0.714375 8.251825,1.984376 3.032125,2.69875 1.120775,6.245225 0.3937,6.667499 0,0 -1.524,-4.940299 -5.2324,-6.467474 0,0 3.540125,2.403475 4.448175,7.121525 0,0 -3.781425,-0.320675 -5.032375,-3.9624 -1.254125,-3.641726 -1.193801,-3.870326 -2.828925,-5.343526"
         style="fill:#1f6534;fill-opacity:1;fill-rule:nonzero;stroke:none;stroke-width:0.03175"
         id="path2520" />
      <path
         d="m 69.364559,64.950642 c 0,0 1.317625,8.347075 6.867525,11.753851 5.553076,3.40995 10.112376,-1.171575 10.426701,-2.479676 0,0 -8.2931,-0.05397 -12.357101,-5.045075 0,0 5.330825,4.327526 12.998451,3.536951 0,0 -2.24155,-5.661026 -8.416925,-5.895976 -6.172201,-0.238125 -6.499226,-0.0381 -9.518651,-1.870075"
         style="fill:#1f6534;fill-opacity:1;fill-rule:nonzero;stroke:none;stroke-width:0.03175"
         id="path2522" />
      <path
         d="m 69.869384,51.094941 c 0,0 5.203825,0.822325 7.327901,4.2799 2.124074,3.46075 -0.73025,6.302376 -1.546225,6.499226 0,0 -0.03493,-5.168901 -3.143251,-7.70255 0,0 2.695575,3.321049 2.20345,8.1026 0,0 -3.5306,-1.397 -3.67665,-5.2451 -0.14605,-3.848101 -0.02222,-4.051301 -1.165225,-5.934076"
         style="fill:#1f6534;fill-opacity:1;fill-rule:nonzero;stroke:none;stroke-width:0.03175"
         id="path2524" />
      <path
         d="m 94.167657,38.51559 c 0,0 5.743575,-1.374775 9.426583,1.304925 3.683,2.676526 1.93992,6.845301 1.17474,7.397751 0,0 -2.24472,-5.3467 -6.550018,-6.642101 0,0 4.213228,2.292351 5.746748,7.454901 0,0 -4.254503,0.06349 -6.051551,-3.863975 -1.800225,-3.927475 -1.755774,-4.187825 -3.746502,-5.651501"
         style="fill:#1f6534;fill-opacity:1;fill-rule:nonzero;stroke:none;stroke-width:0.03175"
         id="path2526" />
      <path
         d="m 73.120584,37.810741 c 0,0 4.7117,-3.562351 9.159876,-2.584451 4.448175,0.974725 4.5212,5.49275 4.04495,6.30555 0,0 -4.200525,-3.997325 -8.667751,-3.457575 0,0 4.781551,0.409575 8.258176,4.524376 0,0 -3.8735,1.762125 -7.096126,-1.111251 -3.222625,-2.876549 -3.2893,-3.133724 -5.699125,-3.676649"
         style="fill:#1f6534;fill-opacity:1;fill-rule:nonzero;stroke:none;stroke-width:0.03175"
         id="path2528" />
      <path
         d="m 126.32406,48.586691 c 0,0 -6.13092,-4.6355 -11.91577,-3.365501 -5.78168,1.270001 -5.88011,7.146927 -5.2578,8.204202 0,0 5.461,-5.200651 11.27125,-4.495801 0,0 -6.21983,0.530225 -10.74103,5.883276 0,0 5.03873,2.292349 9.22973,-1.447801 4.19099,-3.74015 4.27672,-4.073525 7.41362,-4.778375"
         style="fill:#1f6534;fill-opacity:1;fill-rule:nonzero;stroke:none;stroke-width:0.03175"
         id="path2530" />
      <path
         d="m 139.87813,55.019241 c 0,0 -6.12774,-4.632325 -11.91259,-3.365499 -5.78485,1.269999 -5.8801,7.146925 -5.26098,8.2042 0,0 5.46418,-5.20065 11.27125,-4.495801 0,0 -6.21664,0.530225 -10.73785,5.883276 0,0 5.03872,2.29235 9.22655,-1.4478 4.191,-3.736976 4.27991,-4.073526 7.41362,-4.778376"
         style="fill:#1f6534;fill-opacity:1;fill-rule:nonzero;stroke:none;stroke-width:0.03175"
         id="path2532" />
      <path
         d="m 151.52404,64.112442 c 0,0 -2.04787,-5.826125 -6.72783,-7.6708 -4.67994,-1.8415 -7.60729,1.924049 -7.68667,2.895599 0,0 6.36588,-0.854074 10.10285,2.279651 0,0 -4.62598,-2.520951 -10.40448,-1.133475 0,0 2.41935,3.806825 7.18502,3.311525 4.76251,-0.492125 4.98793,-0.669925 7.53111,0.3175"
         style="fill:#1f6534;fill-opacity:1;fill-rule:nonzero;stroke:none;stroke-width:0.03175"
         id="path2534" />
      <path
         d="m 151.75581,72.383317 c 0,0 -2.05104,-5.826124 -6.731,-7.6708 -4.67994,-1.8415 -7.60729,1.92405 -7.68667,2.8956 0,0 6.36904,-0.854075 10.10285,2.279651 0,0 -4.6228,-2.520951 -10.40448,-1.133476 0,0 2.42253,3.806826 7.18502,3.311525 4.76568,-0.492124 4.98793,-0.669925 7.53428,0.3175"
         style="fill:#1f6534;fill-opacity:1;fill-rule:nonzero;stroke:none;stroke-width:0.03175"
         id="path2536" />
      <path
         d="m 119.00251,62.182041 c 0,0 -5.207,-4.860925 -10.66482,-4.248149 -5.45466,0.615949 -6.10871,6.02615 -5.63881,7.058025 0,0 5.53721,-4.267201 10.82676,-3.0607 0,0 -5.78486,-0.10795 -10.46798,4.3942 0,0 4.42278,2.600325 8.6487,-0.447675 4.22592,-3.044825 4.33705,-3.34645 7.29615,-3.695701"
         style="fill:#1f6534;fill-opacity:1;fill-rule:nonzero;stroke:none;stroke-width:0.03175"
         id="path2538" />
      <path
         d="m 75.930459,82.778268 c 0,0 5.203825,0.822325 7.327901,4.283076 2.124075,3.457575 -0.73025,6.302375 -1.546225,6.499221 0,0 -0.03493,-5.172072 -3.14325,-7.702547 0,0 2.695574,3.321051 2.20345,8.099429 0,0 -3.530601,-1.397004 -3.67665,-5.245104 -0.146051,-3.848099 -0.02222,-4.051299 -1.165226,-5.934075"
         style="fill:#1f6534;fill-opacity:1;fill-rule:nonzero;stroke:none;stroke-width:0.03175"
         id="path2540" />
      <path
         d="m 106.66129,100.57097 c 0,0 -8.87413,1.50812 -12.436483,7.46125 -3.562344,5.95312 1.3716,10.75372 2.768607,11.07123 0,0 -0.04446,-8.83286 5.219696,-13.22071 0,0 -4.54025,5.7277 -3.60362,13.88428 0,0 6.00075,-2.45745 6.17537,-9.03287 0.17462,-6.57861 -0.0413,-6.92151 1.87643,-10.16318"
         style="fill:#1f6534;fill-opacity:1;fill-rule:nonzero;stroke:none;stroke-width:0.03175"
         id="path2542" />
      <path
         d="m 120.21219,84.524518 c 0,0 -6.54051,-1.7653 -10.85216,1.184275 -4.31164,2.949575 -2.44792,7.785101 -1.59067,8.445502 0,0 2.74955,-6.057901 7.73112,-7.400927 0,0 -4.90854,2.4892 -6.83577,8.359778 0,0 4.87681,0.209547 7.06755,-4.232277 2.19075,-4.441826 2.15266,-4.743451 4.47993,-6.356351"
         style="fill:#1f6534;fill-opacity:1;fill-rule:nonzero;stroke:none;stroke-width:0.03175"
         id="path2544" />
      <path
         d="m 86.157135,115.9348 c 0,0 5.562603,2.66064 6.794496,7.25169 1.228734,4.59106 -2.924172,6.82943 -3.905244,6.77546 0,0 1.689102,-5.81025 -0.958851,-9.69328 0,0 1.917702,4.62915 -0.2286,9.82663 0,0 -3.492501,-2.7432 -2.374901,-7.11201 1.1176,-4.36562 1.32715,-4.55294 0.6731,-7.04849"
         style="fill:#1f6534;fill-opacity:1;fill-rule:nonzero;stroke:none;stroke-width:0.03175"
         id="path2546" />
      <path
         d="m 98.288811,86.073918 c 0,0 5.562599,2.657475 6.794499,7.248526 1.22872,4.594229 -2.92418,6.829426 -3.90525,6.778626 0,0 1.6891,-5.813422 -0.95885,-9.693276 0,0 1.9177,4.629149 -0.228598,9.826626 0,0 -3.492504,-2.746372 -2.374902,-7.112001 1.117602,-4.3688 1.327149,-4.552951 0.673101,-7.048501"
         style="fill:#1f6534;fill-opacity:1;fill-rule:nonzero;stroke:none;stroke-width:0.03175"
         id="path2548" />
      <path
         d="m 146.09796,113.35669 c 0,0 5.95312,-1.60655 9.87743,1.0795 3.92112,2.68288 2.22567,7.08661 1.4478,7.68351 0,0 -2.5019,-5.50863 -7.03898,-6.73418 0,0 4.4704,2.26695 6.22301,7.61047 0,0 -4.43866,0.1905 -6.43255,-3.85445 -1.99391,-4.04177 -1.95898,-4.318 -4.07671,-5.78485"
         style="fill:#1f6534;fill-opacity:1;fill-rule:nonzero;stroke:none;stroke-width:0.03175"
         id="path2550" />
      <path
         d="m 127.12734,82.482993 c 0,0 -3.58775,2.032 -4.19736,5.153026 -0.60642,3.121024 2.27014,4.422774 2.92101,4.340225 0,0 -1.397,-3.800475 0.1905,-6.511925 0,0 -1.06681,3.178174 0.6096,6.54685 0,0 2.20345,-1.993901 1.25412,-4.857751 -0.94932,-2.863849 -1.09537,-2.978149 -0.77787,-4.670425"
         style="fill:#1f6534;fill-opacity:1;fill-rule:nonzero;stroke:none;stroke-width:0.03175"
         id="path2552" />
      <path
         d="m 160.63629,83.946669 c 0,0 6.35635,3.60045 7.43267,9.128124 1.07633,5.52768 -4.01637,7.832727 -5.17207,7.689847 0,0 2.47332,-6.730999 -0.33337,-11.534772 0,0 1.88595,5.626103 -1.07951,11.591922 0,0 -3.90524,-3.530599 -2.22249,-8.601071 1.68274,-5.070475 1.9431,-5.2705 1.37477,-8.27405"
         style="fill:#1f6534;fill-opacity:1;fill-rule:nonzero;stroke:none;stroke-width:0.03175"
         id="path2554" />
      <path
         d="m 161.85866,105.63827 c 0,0 -3.57822,-6.321422 -9.07415,-7.391405 -5.49274,-1.069974 -7.78192,3.994155 -7.63904,5.140335 0,0 6.68972,-2.45745 11.46492,0.33337 0,0 -5.59435,-1.87325 -11.52525,1.07632 0,0 3.50837,3.87668 8.55028,2.20663 5.03872,-1.67322 5.23874,-1.9304 8.22324,-1.36525"
         style="fill:#1f6534;fill-opacity:1;fill-rule:nonzero;stroke:none;stroke-width:0.03175"
         id="path2556" />
      <path
         d="m 173.48869,113.96947 c 0,0 2.7051,-5.28002 0.96837,-9.50912 -1.73672,-4.2291 -6.21982,-3.5179 -6.93737,-2.90513 0,0 4.67995,3.46075 4.91808,7.97242 0,0 -1.2319,-4.65772 -5.90551,-7.38187 0,0 -1.07315,4.13702 2.33046,6.82625 3.4036,2.68605 3.67029,2.70827 4.62597,4.99745"
         style="fill:#1f6534;fill-opacity:1;fill-rule:nonzero;stroke:none;stroke-width:0.03175"
         id="path2558" />
      <path
         d="m 137.98902,77.412518 c 0,0 -7.36283,5.730875 -7.69303,12.9159 -0.3302,7.185028 6.53097,9.147172 7.96607,8.750299 0,0 -4.37832,-8.042273 -1.7272,-14.633574 0,0 -1.33349,7.461251 3.52426,14.446248 0,0 4.27355,-5.187951 1.20649,-11.280773 -3.07022,-6.092825 -3.43534,-6.2992 -3.27659,-10.1981"
         style="fill:#1f6534;fill-opacity:1;fill-rule:nonzero;stroke:none;stroke-width:0.03175"
         id="path2560" />
      <path
         d="m 144.00247,73.573943 c 0,0 -3.11468,2.425699 -3.25439,5.464175 -0.13969,3.038475 2.76226,3.870325 3.36869,3.70205 0,0 -1.85103,-3.4036 -0.73026,-6.19125 0,0 -0.56515,3.15595 1.48908,6.111876 0,0 1.80975,-2.193926 0.51117,-4.772026 -1.29857,-2.5781 -1.45098,-2.663826 -1.38429,-4.314825"
         style="fill:#1f6534;fill-opacity:1;fill-rule:nonzero;stroke:none;stroke-width:0.03175"
         id="path2562" />
      <path
         d="m 131.70252,67.258867 c 0,0 -3.11468,2.4257 -3.25439,5.464175 -0.13969,3.038476 2.76543,3.870326 3.37185,3.702051 0,0 -1.85419,-3.4036 -0.73025,-6.191251 0,0 -0.56514,3.155951 1.48908,6.111876 0,0 1.80976,-2.193925 0.51117,-4.772025 -1.29857,-2.574926 -1.45414,-2.663826 -1.38746,-4.314826"
         style="fill:#1f6534;fill-opacity:1;fill-rule:nonzero;stroke:none;stroke-width:0.03175"
         id="path2564" />
      <path
         d="m 113.03986,67.258867 c 0,0 -3.11467,2.4257 -3.25438,5.464175 -0.1397,3.038476 2.76226,3.870326 3.36868,3.702051 0,0 -1.85103,-3.4036 -0.73025,-6.191251 0,0 -0.56197,3.155951 1.49225,6.111876 0,0 1.80658,-2.193925 0.508,-4.772025 -1.29857,-2.574926 -1.45098,-2.663826 -1.3843,-4.314826"
         style="fill:#1f6534;fill-opacity:1;fill-rule:nonzero;stroke:none;stroke-width:0.03175"
         id="path2566" />
      <path
         d="m 153.62589,71.761018 c 0,0 5.81977,7.20725 4.51168,14.227175 -1.30811,7.019926 -8.38518,7.362826 -9.68058,6.654801 0,0 6.05154,-6.7818 4.98157,-13.754101 0,0 -0.40005,7.51205 -6.67702,13.166726 0,0 -2.9591,-5.981701 1.38748,-11.176001 4.34657,-5.194301 4.74662,-5.311775 5.47687,-9.1186"
         style="fill:#1f6534;fill-opacity:1;fill-rule:nonzero;stroke:none;stroke-width:0.03175"
         id="path2568" />
      <path
         d="m 107.89001,74.091468 c 0,0 1.5113,5.6134 -1.01918,9.31545 -2.53047,3.698876 -6.68337,2.10185 -7.248516,1.36525 0,0 5.197476,-2.359025 6.349996,-6.63575 0,0 -2.1336,4.213225 -7.175503,5.867401 0,0 -0.180972,-4.184651 3.635383,-6.067426 3.81317,-1.879601 4.07352,-1.84785 5.45782,-3.844925"
         style="fill:#1f6534;fill-opacity:1;fill-rule:nonzero;stroke:none;stroke-width:0.03175"
         id="path2570" />
      <path
         d="m 130.22932,116.49042 c 0,0 -4.93396,-3.08293 -9.21069,-1.73673 -4.27671,1.34303 -3.95287,5.78168 -3.4163,6.53733 0,0 3.7719,-4.28625 8.19786,-4.14337 0,0 -4.65138,0.81597 -7.70255,5.1562 0,0 3.95287,1.39065 6.86117,-1.71133 2.91148,-3.10197 2.95275,-3.35915 5.27051,-4.1021"
         style="fill:#1f6534;fill-opacity:1;fill-rule:nonzero;stroke:none;stroke-width:0.03175"
         id="path2572" />
      <path
         d="m 121.70761,70.995842 c 0,0 0.94615,3.511551 -0.635,5.826126 -1.58433,2.3114 -4.18147,1.311275 -4.5339,0.854075 0,0 3.2512,-1.476376 3.97193,-4.149726 0,0 -1.33668,2.635251 -4.48628,3.667126 0,0 -0.1143,-2.6162 2.27013,-3.79095 2.38442,-1.177926 2.54635,-1.1557 3.41312,-2.406651"
         style="fill:#1f6534;fill-opacity:1;fill-rule:nonzero;stroke:none;stroke-width:0.03175"
         id="path2574" />
      <path
         d="m 57.159858,70.989493 c 0,0 5.861051,2.71145 7.210425,7.502525 1.349376,4.79425 -2.9718,7.191375 -4.0005,7.1501 0,0 1.692276,-6.111875 -1.127125,-10.14095 0,0 2.066925,4.822825 -0.1143,10.296525 0,0 -3.6957,-2.828925 -2.581275,-7.419975 1.1176,-4.587875 1.330325,-4.784725 0.612775,-7.388225"
         style="fill:#1f6534;fill-opacity:1;fill-rule:nonzero;stroke:none;stroke-width:0.03175"
         id="path2576" />
      <path
         d="m 53.968983,40.798416 c 0,0 -5.254626,0.377824 -7.66445,3.648075 -2.409826,3.267075 0.19685,6.340475 0.993774,6.604 0,0 0.4699,-5.146675 3.781426,-7.407275 0,0 -2.965451,3.082925 -2.879726,7.883526 0,0 3.635376,-1.092201 4.105276,-4.914901 0.473075,-3.822701 0.365124,-4.035426 1.6637,-5.813425"
         style="fill:#1f6534;fill-opacity:1;fill-rule:nonzero;stroke:none;stroke-width:0.03175"
         id="path2578" />
      <path
         d="m 52.724383,61.140642 c 0,0 -7.1501,3.851275 -8.474076,9.9695 -1.32715,6.118225 4.279901,8.797926 5.565776,8.667751 0,0 -2.590801,-7.540626 0.641349,-12.814301 0,0 -2.225674,6.210301 0.930276,12.912726 0,0 4.422775,-3.832225 2.670174,-9.509126 -1.749424,-5.673725 -2.031999,-5.902325 -1.333499,-9.22655"
         style="fill:#1f6534;fill-opacity:1;fill-rule:nonzero;stroke:none;stroke-width:0.03175"
         id="path2580" />
      <path
         d="m 43.075557,44.598891 c 0,0 -7.150101,3.851275 -8.474075,9.969501 -1.32715,6.118225 4.2799,8.797925 5.565775,8.66775 0,0 -2.5908,-7.540626 0.64135,-12.814301 0,0 -2.225675,6.210301 0.930275,12.912726 0,0 4.419601,-3.832225 2.670175,-9.509125 -1.749425,-5.673726 -2.035175,-5.902326 -1.3335,-9.226551"
         style="fill:#1f6534;fill-opacity:1;fill-rule:nonzero;stroke:none;stroke-width:0.03175"
         id="path2582" />
      <path
         d="m 17.681906,58.508566 c 0,0 11.4935,-1.5875 18.183226,4.352926 6.689725,5.940426 2.48285,13.757276 0.885825,14.690726 0,0 -3.368676,-10.880725 -11.544301,-14.236701 0,0 7.807326,5.286376 9.8171,15.678151 0,0 -8.3312,-0.695325 -11.096625,-8.715376 -2.7686,-8.02005 -2.63525,-8.52805 -6.245225,-11.769726"
         style="fill:#1f6534;fill-opacity:1;fill-rule:nonzero;stroke:none;stroke-width:0.03175"
         id="path2584" />
      <path
         d="m 76.146359,44.452841 c 0,0 13.1953,-1.82245 20.872453,4.99745 7.680318,6.816725 2.847978,15.789276 1.019178,16.859251 0,0 -3.867156,-12.487276 -13.252455,-16.338551 0,0 8.959851,6.067425 11.268072,17.992726 0,0 -9.563097,-0.796925 -12.738097,-10.00125 -3.175,-9.207501 -3.022601,-9.788526 -7.169151,-13.509626"
         style="fill:#1f6534;fill-opacity:1;fill-rule:nonzero;stroke:none;stroke-width:0.03175"
         id="path2586" />
      <path
         d="m 178.96874,116.10942 c 0,0 -1.1303,9.5504 -7.29298,13.67472 -6.16267,4.12116 -11.55382,-0.88582 -11.96974,-2.36219 0,0 9.43292,-0.42546 13.83347,-6.28333 0,0 -5.87058,5.1562 -14.62723,4.5974 0,0 2.2987,-6.53733 9.31228,-7.08025 7.0104,-0.53975 7.38823,-0.3302 10.7442,-2.54635"
         style="fill:#1f6534;fill-opacity:1;fill-rule:nonzero;stroke:none;stroke-width:0.03175"
         id="path2588" />
      <path
         d="m 144.27868,116.91587 c 0,0 3.54648,6.26428 1.65101,11.4808 -1.8923,5.21652 -7.36283,4.57835 -8.26771,3.8735 0,0 5.50228,-4.4323 5.56578,-9.91553 0,0 -1.26047,5.71183 -6.79132,9.24878 0,0 -1.50813,-4.96253 2.48602,-8.3947 3.99098,-3.429 4.31166,-3.47028 5.35622,-6.29285"
         style="fill:#1f6534;fill-opacity:1;fill-rule:nonzero;stroke:none;stroke-width:0.03175"
         id="path2590" />
      <path
         d="m 118.34846,138.46777 c 0,0 1.92405,-6.93738 6.95008,-9.28687 5.0292,-2.3495 8.4455,1.9685 8.5852,3.10514 0,0 -7.02627,-0.75565 -10.9474,3.07658 0,0 4.93077,-3.14643 11.34427,-1.73672 0,0 -2.44475,4.57517 -7.69302,4.1783 -5.24828,-0.39688 -5.50545,-0.5969 -8.23913,0.66357"
         style="fill:#1f6534;fill-opacity:1;fill-rule:nonzero;stroke:none;stroke-width:0.03175"
         id="path2592" />
      <path
         d="m 8.3918554,67.014393 c 0,0 -2.0383506,9.280525 2.3748996,15.1257 4.416426,5.845175 11.071226,2.917825 11.938001,1.673225 0,0 -8.664575,-3.4544 -10.874376,-10.344151 0,0 3.806826,6.711951 12.160251,9.026526 0,0 -0.0254,-6.8453 -6.39445,-9.623425 -6.369051,-2.778126 -6.791326,-2.701926 -9.2043256,-5.857875"
         style="fill:#1f6534;fill-opacity:1;fill-rule:nonzero;stroke:none;stroke-width:0.03175"
         id="path2594" />
      <path
         d="m 16.221405,85.778644 c 0,0 5.435601,4.994274 5.232401,10.677527 -0.200025,5.686429 -5.737226,6.791329 -6.842125,6.388099 0,0 3.96875,-6.061075 2.301875,-11.426827 0,0 0.5715,5.965827 -3.705225,11.163297 0,0 -3.035301,-4.365618 -0.225426,-8.972547 2.809875,-4.603749 3.111501,-4.743449 3.2385,-7.829549"
         style="fill:#1f6534;fill-opacity:1;fill-rule:nonzero;stroke:none;stroke-width:0.03175"
         id="path2596" />
      <path
         d="m 23.501681,80.181118 c 0,0 7.299326,1.076325 10.328276,5.889625 3.025775,4.816475 -0.933451,8.842378 -2.073275,9.128128 0,0 -0.120651,-7.242178 -4.514851,-10.744203 0,0 3.825875,4.613276 3.203575,11.315703 0,0 -4.962525,-1.905003 -5.22605,-7.292977 -0.26035,-5.391151 -0.09208,-5.676901 -1.717675,-8.296276"
         style="fill:#1f6534;fill-opacity:1;fill-rule:nonzero;stroke:none;stroke-width:0.03175"
         id="path2598" />
      <path
         d="m 65.516458,104.16824 c 0,0 5.454651,1.06046 7.566026,4.7879 2.111376,3.73063 -1.00965,6.61988 -1.876425,6.7945 0,0 0.15875,-5.45147 -3.025775,-8.23912 0,0 2.7178,3.60363 2.0193,8.6233 0,0 -3.667126,-1.60337 -3.67665,-5.66738 -0.0127,-4.06399 0.127,-4.27037 -1.006476,-6.2992"
         style="fill:#1f6534;fill-opacity:1;fill-rule:nonzero;stroke:none;stroke-width:0.03175"
         id="path2600" />
      <path
         d="m 90.719613,79.749318 c 0,0 3.857625,2.63525 4.244976,6.213476 0.387351,3.581399 -2.981331,4.772025 -3.708405,4.619625 0,0 1.936755,-4.152901 0.406404,-7.366001 0,0 0.898524,3.686175 -1.311282,7.3279 0,0 -2.295522,-2.45745 -0.952497,-5.597524 1.346202,-3.140076 1.520829,-3.254376 1.320804,-5.197476"
         style="fill:#1f6534;fill-opacity:1;fill-rule:nonzero;stroke:none;stroke-width:0.03175"
         id="path2602" />
      <path
         d="m 95.38686,68.862242 c 0,0 3.854448,2.63525 4.241799,6.213476 0.390531,3.5814 -2.978145,4.772025 -3.708396,4.619625 0,0 1.939923,-4.152901 0.409572,-7.366 0,0 0.898524,3.686175 -1.311273,7.3279 0,0 -2.298699,-2.460625 -0.952497,-5.597525 1.343025,-3.140075 1.52082,-3.254375 1.320795,-5.197476"
         style="fill:#1f6534;fill-opacity:1;fill-rule:nonzero;stroke:none;stroke-width:0.03175"
         id="path2604" />
      <path
         d="m 5.8042298,110.59127 c 0,0 -2.2542501,7.47712 0.9937751,12.54443 3.2480251,5.0673 8.8868261,3.08927 9.6742261,2.12407 0,0 -6.8834008,-3.37503 -8.258176,-9.16305 0,0 2.69875,5.74357 9.394826,8.1661 0,0 0.409574,-5.6134 -4.632326,-8.28992 -5.0450748,-2.67653 -5.3943252,-2.6416 -7.1723252,-5.38163"
         style="fill:#1f6534;fill-opacity:1;fill-rule:nonzero;stroke:none;stroke-width:0.03175"
         id="path2606" />
      <path
         d="m 21.075981,111.57869 c 0,0 -1.546225,5.1308 0.682625,8.60743 2.22885,3.47663 6.096001,2.11773 6.63575,1.45732 0,0 -4.721225,-2.31775 -5.6642,-6.2865 0,0 1.851025,3.94018 6.44525,5.6007 0,0 0.282576,-3.8481 -3.178174,-5.68642 -3.460752,-1.83515 -3.702051,-1.81292 -4.921251,-3.69253"
         style="fill:#1f6534;fill-opacity:1;fill-rule:nonzero;stroke:none;stroke-width:0.03175"
         id="path2608" />
      <path
         d="m 23.876331,125.26612 c 0,0 -1.5494,5.1308 0.682625,8.60742 2.22885,3.47663 6.096001,2.11773 6.63575,1.45733 0,0 -4.721225,-2.31775 -5.6642,-6.2865 0,0 1.851025,3.94017 6.44525,5.6007 0,0 0.282576,-3.8481 -3.178174,-5.68643 -3.460751,-1.83832 -3.702051,-1.81292 -4.921251,-3.69252"
         style="fill:#1f6534;fill-opacity:1;fill-rule:nonzero;stroke:none;stroke-width:0.03175"
         id="path2610" />
      <path
         d="m 41.532507,79.955693 c 0,0 -2.50825,8.312151 1.1049,13.947772 3.609976,5.632452 9.880601,3.432177 10.753726,2.362203 0,0 -7.651751,-3.756024 -9.182101,-10.188574 0,0 3.000375,6.384925 10.448926,9.077326 0,0 0.454025,-6.238877 -5.153025,-9.217027 -5.607051,-2.974975 -5.997576,-2.936875 -7.972426,-5.9817"
         style="fill:#1f6534;fill-opacity:1;fill-rule:nonzero;stroke:none;stroke-width:0.03175"
         id="path2612" />
      <path
         d="m 59.010883,39.995141 c 0,0 -7.800975,8.969375 -6.45795,18.034001 1.343025,9.064625 10.40765,9.839325 12.1031,8.9916 0,0 -7.445375,-8.985251 -5.7404,-17.878426 0,0 0.15875,9.655176 7.94385,17.205326 0,0 4.073526,-7.534275 -1.254124,-14.401801 -5.32765,-6.867526 -5.835651,-7.038976 -6.594476,-11.9507"
         style="fill:#1f6534;fill-opacity:1;fill-rule:nonzero;stroke:none;stroke-width:0.03175"
         id="path2614" />
      <path
         d="m -18.490872,155.73025 c 0,0 4.600576,7.02627 11.023601,7.85495 6.4230254,0.8255 8.6868005,-5.18795 8.4391505,-6.5024 0,0 -7.5406254,3.33375 -13.2588015,0.46672 0,0 6.5944761,1.74943 13.22070153,-2.0955 0,0 -4.34022523,-4.2164 -10.03300063,-1.91452 -5.6927749,2.30505 -5.9055009,2.61938 -9.3916509,2.19075"
         style="fill:#1f6534;fill-opacity:1;fill-rule:nonzero;stroke:none;stroke-width:0.03175"
         id="path2616" />
      <path
         d="m 151.15891,156.05728 c 0,0 4.9276,7.52792 11.80466,8.41374 6.87704,0.88583 9.30275,-5.55624 9.03604,-6.96277 0,0 -8.07402,3.57187 -14.1986,0.50165 0,0 7.06438,1.87007 14.1605,-2.24473 0,0 -4.6482,-4.51803 -10.7442,-2.05104 -6.09599,2.47014 -6.32459,2.80351 -10.0584,2.34315"
         style="fill:#1f6534;fill-opacity:1;fill-rule:nonzero;stroke:none;stroke-width:0.03175"
         id="path2618" />
      <path
         d="m -0.94899563,165.36319 c 0,0 6.97230043,2.26696 11.79195063,-0.68262 4.822826,-2.94957 3.0734,-8.28039 2.1844,-9.03922 0,0 -3.3051754,6.39127 -8.7630003,7.5692 0,0 5.4419507,-2.41936 7.8486003,-8.65823 0,0 -5.2578001,-0.49529 -7.8708252,4.18783 -2.6130252,4.67994 -2.5876252,5.01015 -5.19112543,6.62304"
         style="fill:#1f6534;fill-opacity:1;fill-rule:nonzero;stroke:none;stroke-width:0.03175"
         id="path2620" />
      <path
         d="m 174.46977,153.7554 c 0,0 -0.99696,-6.34048 -5.21018,-8.93445 -4.2164,-2.59397 -7.6835,0.88264 -7.9248,1.87642 0,0 6.30238,0.0476 9.3853,3.84175 0,0 -4.04495,-3.29248 -9.87107,-2.69558 0,0 1.69862,4.30213 6.3881,4.48629 4.68947,0.18097 4.93712,0.0318 7.23265,1.42557"
         style="fill:#1f6534;fill-opacity:1;fill-rule:nonzero;stroke:none;stroke-width:0.03175"
         id="path2622" />
      <path
         d="m 175.32702,145.39562 c 0,0 4.74979,-4.318 4.60057,-9.26465 -0.14922,-4.94348 -4.95935,-5.9309 -5.92137,-5.58482 0,0 3.42264,5.28955 1.94945,9.95045 0,0 0.52387,-5.18795 -3.175,-9.72821 0,0 -2.66065,3.78461 -0.23496,7.80415 2.42253,4.01638 2.68605,4.14021 2.78131,6.82308"
         style="fill:#1f6534;fill-opacity:1;fill-rule:nonzero;stroke:none;stroke-width:0.03175"
         id="path2624" />
      <path
         d="m 166.32272,138.09312 c 0,0 -4.04178,-4.9911 -8.98843,-5.12128 -4.94665,-0.13334 -6.20395,4.61328 -5.91502,5.59436 0,0 5.47687,-3.11785 10.0457,-1.38113 0,0 -5.14986,-0.81915 -9.89331,2.6162 0,0 3.62585,2.8702 7.77876,0.67945 4.14972,-2.19075 4.28625,-2.44475 6.9723,-2.3876"
         style="fill:#1f6534;fill-opacity:1;fill-rule:nonzero;stroke:none;stroke-width:0.03175"
         id="path2626" />
      <path
         d="m 72.834834,184.22587 c 0,0 6.889751,-28.47975 -37.068128,-37.95395 -3.8862,-0.8382 -7.934325,-0.88583 -11.7729,0.15558 -2.117725,0.57467 -4.302126,1.4859 -6.010275,2.93687 -4.873625,4.14338 -22.1837268,2.4384 -22.1837268,2.4384 0,0 13.8969756,0 21.2090018,-5.36257 0,0 -25.5968521,2.92417 -30.229177,-9.02018 0,0 9.7504252,12.18883 32.667577,3.6576 l -5.048251,-4.13067 c -1.895475,-1.55258 -4.2291,-2.45745 -6.6738502,-2.61303 -4.5751752,-0.2921 -11.9030756,-1.0922 -12.9000257,-3.2512 0,0 6.3373004,1.70497 13.1635511,0.73025 0,0 -8.04545079,-9.75042 -23.1584512,-9.26465 0,0 17.0656256,-5.36258 34.128077,12.4333 0,0 4.14655,5.36257 18.284826,4.14338 14.138276,-1.2192 25.841326,6.34047 25.841326,6.34047 0,0 -3.413125,-13.40803 -12.92225,-14.62722 -9.505951,-1.2192 -28.521027,-4.38785 -30.470478,-9.02018 0,0 8.007352,5.48958 23.355302,4.50533 1.470026,-0.0953 2.9464,-0.0953 4.4069,0.0921 1.651001,0.21272 3.676651,0.63817 5.146675,1.49542 0,0 -11.458575,-15.35747 -25.352376,-15.60195 -13.896975,-0.2413 -30.4736518,-2.43522 -32.1786269,-8.28675 0,0 4.63232532,6.33731 27.0573519,4.63233 0,0 -16.3322012,-6.34047 -19.5008513,-14.141449 0,0 5.8515257,8.289929 22.9139763,13.166719 17.065626,4.87363 22.183726,9.02018 22.183726,9.02018 0,0 1.463676,-5.12128 -6.3373,-11.2141 -7.800975,-6.096005 -15.357476,-7.070723 -16.576676,-14.385927 0,0 -0.73025,3.657604 17.795876,11.947527 0,0 -4.632325,-9.020174 -8.04545,-9.750426 0,0 6.340475,1.216027 13.16355,13.649326 3.987801,7.26122 6.394451,11.28077 7.705726,13.36675 0.51435,0.81597 1.762125,0.62865 2.003425,-0.3048 0.762,-2.91465 1.755775,-8.1534 0.7747,-13.06195 0,0 2.924175,7.31203 1.425576,16.32903 -0.231776,1.39065 0.1143,2.8194 1.012824,3.91159 2.006601,2.43206 5.362576,6.86436 5.362576,9.2583 0,0 4.18465,-9.64247 8.6233,-14.93837 1.733551,-2.06693 2.574925,-4.74028 2.190751,-7.40728 -0.406401,-2.83844 -1.6129,-6.52462 -4.718051,-10.32192 -6.58495,-8.045455 -9.994901,-12.677777 -9.509125,-17.795877 0,0 1.67005,6.264275 7.134225,11.639549 0.555625,0.549279 1.50495,0.177804 1.539875,-0.603252 0.180975,-3.956046 -0.04127,-13.065122 -5.50545,-16.643347 0,0 7.464425,3.317875 8.0518,15.497179 0.10795,2.260593 0.806451,4.457698 2.08915,6.324598 l 0.587375,0.8509 c 0,0 2.193925,-9.020174 1.704976,-13.163551 0,0 1.949449,12.674601 0.974724,16.087731 -0.974724,3.41312 1.708151,8.28992 1.708151,8.28992 0,0 11.699871,-12.18882 14.868528,-23.647402 0,0 -7.312032,23.158452 -15.357479,32.667572 -8.04545,9.50595 -7.312025,30.71496 -2.438399,32.90888 0,0 13.896979,-27.30182 26.330275,-34.8615 l 0.13017,-0.0794 c 2.22885,-1.3843 3.51156,-3.85446 3.45123,-6.477 -0.127,-5.58483 1.4224,-14.951082 11.77608,-21.31378 0,0 -5.85153,7.9629 -5.6896,11.2141 0,0 5.6896,-4.38785 11.70305,-5.527671 6.01345,-1.136655 7.47395,-6.013455 7.47395,-6.013455 0,0 -1.62243,7.315196 -13.4874,11.379196 -11.86498,4.06083 -7.1501,11.37603 -7.1501,11.37603 0,0 9.42657,-6.98817 20.8026,-7.80097 11.37602,-0.8128 18.3642,-10.239384 18.3642,-10.239384 0,0 -7.47713,9.099554 -12.18883,10.563224 0,0 12.8397,2.76226 19.01508,-1.46367 0,0 -13.32865,6.34048 -28.27973,5.36257 -14.95107,-0.97472 -21.77733,13.81444 -21.77733,13.81444 0,0 20.80261,0.97789 30.71496,-4.22276 0,0 -15.76388,8.12482 -26.32711,8.44868 -10.56322,0.32702 -20.802597,19.01507 -20.802597,19.01507 0,0 15.601947,-6.49922 30.229177,-7.47395 14.62723,-0.97789 32.66757,-17.06563 32.66757,-17.06563 0,0 13.16356,-6.50239 18.52614,-2.92417 0,0 -10.07746,-1.46367 -23.40293,9.91235 l 11.86497,-0.16192 -11.6459,2.30188 c -2.03199,0.40321 -3.94652,1.22554 -5.63244,2.42252 -3.302,2.3495 -8.89001,6.16267 -10.35051,6.16267 0,0 29.5783,4.8768 37.54121,-6.49922 0,0 -10.23938,12.51267 -27.13991,11.2141 0,0 12.35076,5.85152 19.66596,5.03872 0,0 -17.22756,1.62243 -23.07908,-3.08928 -5.7277,-4.61327 -68.938781,6.19443 -50.844457,31.05151 0.854073,1.17157 1.276353,2.6035 1.276353,4.05448 v 0 l -18.853152,-0.0825"
         style="fill:#2b1100;fill-opacity:1;fill-rule:nonzero;stroke:none;stroke-width:0.03175"
         id="path2628" />
      <path
         d="M 19.037631,188.20415 H 152.81944 c 0,0 -69.691255,-12.83335 -133.781809,0"
         style="fill:#552200;fill-opacity:1;fill-rule:nonzero;stroke:none;stroke-width:0.03175"
         id="path2630" />
      <g
         aria-label="

www.RACHEL-BLOT.com"
         id="text462"
         style="font-weight:bold;font-size:16.4363px;line-height:1;font-family:'Product Sans';-inkscape-font-specification:'Product Sans, Bold';letter-spacing:0px;fill:#2b1100;stroke-width:0.447019"
         transform="matrix(1.1485957,0,0,1.1485957,-11.607747,-31.702022)">
        <path
           d="m -26.67303,212.06501 -2.596936,8.05379 h -1.545012 l -2.005229,-6.18005 -1.988792,6.18005 h -1.528576 l -2.596935,-8.05379 h 1.577884 l 1.791557,6.08143 h 0.01644 l 1.988793,-6.08143 h 1.561448 l 1.988793,6.08143 h 0.01644 l 1.77512,-6.08143 z"
           id="path2597"
           style="fill:#552200;fill-opacity:1" />
        <path
           d="m -14.280065,212.06501 -2.596936,8.05379 h -1.545012 l -2.005228,-6.18005 -1.988793,6.18005 h -1.528576 l -2.596935,-8.05379 h 1.577885 l 1.791556,6.08143 h 0.01644 l 1.988792,-6.08143 h 1.561449 l 1.988792,6.08143 h 0.01644 l 1.775121,-6.08143 z"
           style="font-weight:normal;-inkscape-font-specification:'Product Sans, Normal';fill:#552200;fill-opacity:1"
           id="path2599" />
        <path
           d="m -1.8870997,212.06501 -2.5969355,8.05379 h -1.5450122 l -2.0052286,-6.18005 -1.988792,6.18005 h -1.528576 l -2.596936,-8.05379 h 1.577885 l 1.791557,6.08143 h 0.01644 l 1.9887924,-6.08143 h 1.5614486 l 1.9887923,6.08143 h 0.016436 l 1.7751204,-6.08143 z"
           style="font-weight:normal;-inkscape-font-specification:'Product Sans, Normal';fill:#552200;fill-opacity:1"
           id="path2601" />
        <path
           d="m 1.2029177,219.09975 q 0,0.46022 -0.328726,0.78894 -0.3122897,0.32873 -0.78894241,0.32873 -0.46021641,0 -0.78894241,-0.32873 -0.32872598,-0.32872 -0.32872598,-0.78894 0,-0.47665 0.32872598,-0.78894 0.328726,-0.32873 0.78894241,-0.32873 0.47665271,0 0.78894241,0.32873 0.328726,0.31229 0.328726,0.78894 z"
           style="letter-spacing:2.95684px;fill:#552200;fill-opacity:1"
           id="path2603" />
        <path
           d="m 8.0521802,208.23465 v 4.7688 h 2.8007228 q 1.059732,0 1.79776,-0.68126 0.738029,-0.70018 0.738029,-1.72206 0,-0.94619 -0.700181,-1.64637 -0.681257,-0.71911 -1.722066,-0.71911 z m 0,11.88415 H 6.3111906 v -13.54944 h 4.6174074 q 1.759913,0 2.98996,1.17327 1.248971,1.15436 1.248971,2.8575 0,1.40036 -0.927266,2.49794 -0.908343,1.07866 -2.308704,1.38144 l -0.03785,0.0568 3.803684,5.50682 v 0.0757 H 13.634701 L 9.9824077,214.6309 H 8.0521802 Z"
           style="font-weight:normal;font-size:18.9238px;-inkscape-font-specification:'Product Sans, Normal';letter-spacing:2.95684px;fill:#1f6534;fill-opacity:1;stroke:#1f6534;stroke-opacity:1"
           id="path2605" />
        <path
           d="m 25.126158,208.70775 -2.214085,6.11239 h 4.503864 l -2.214084,-6.11239 z m -4.125389,11.41105 h -1.930227 l 5.109426,-13.54944 h 1.968075 l 5.109426,13.54944 h -1.930228 l -1.305742,-3.67122 h -5.696064 z"
           style="font-weight:normal;font-size:18.9238px;-inkscape-font-specification:'Product Sans, Normal';letter-spacing:2.95684px;fill:#1f6534;fill-opacity:1;stroke:#1f6534;stroke-opacity:1"
           id="path2607" />
        <path
           d="m 41.802727,220.42158 q -3.008884,0 -5.033731,-2.02485 -2.005923,-2.02484 -2.005923,-5.05265 0,-3.02781 2.005923,-5.03373 2.005923,-2.04377 5.033731,-2.04377 3.065655,0 4.976959,2.21408 l -1.248971,1.21113 q -1.457132,-1.75992 -3.727988,-1.75992 -2.251932,0 -3.765836,1.51391 -1.49498,1.49498 -1.49498,3.8983 0,2.40332 1.49498,3.8983 1.513904,1.51391 3.765836,1.51391 2.365475,0 4.106464,-1.987 l 1.267895,1.23004 q -0.965114,1.15436 -2.365475,1.79776 -1.400361,0.62449 -3.008884,0.62449 z"
           style="font-weight:normal;font-size:18.9238px;-inkscape-font-specification:'Product Sans, Normal';letter-spacing:2.95684px;fill:#1f6534;fill-opacity:1;stroke:#1f6534;stroke-opacity:1"
           id="path2609" />
        <path
           d="m 53.918654,220.1188 h -1.740989 v -13.54944 h 1.740989 v 5.80961 h 6.774721 v -5.80961 h 1.740989 v 13.54944 h -1.740989 v -6.11239 h -6.774721 z"
           style="font-weight:normal;font-size:18.9238px;-inkscape-font-specification:'Product Sans, Normal';letter-spacing:2.95684px;fill:#1f6534;fill-opacity:1;stroke:#1f6534;stroke-opacity:1"
           id="path2611" />
        <path
           d="m 76.026358,206.56936 v 1.66529 H 69.8572 v 4.29571 h 5.563597 v 1.62744 H 69.8572 v 4.29571 h 6.169158 v 1.66529 H 68.11621 v -13.54944 z"
           style="font-weight:normal;font-size:18.9238px;-inkscape-font-specification:'Product Sans, Normal';letter-spacing:2.95684px;fill:#1f6534;fill-opacity:1;stroke:#1f6534;stroke-opacity:1"
           id="path2613" />
        <path
           d="m 88.937117,220.1188 h -7.607368 v -13.54944 h 1.74099 v 11.88415 h 5.866378 z"
           style="font-weight:normal;font-size:18.9238px;-inkscape-font-specification:'Product Sans, Normal';letter-spacing:2.95684px;fill:#1f6534;fill-opacity:1;stroke:#1f6534;stroke-opacity:1"
           id="path2615" />
        <path
           d="m 99.463466,214.97153 h -6.055615 v -1.43821 h 6.055615 z"
           style="font-weight:normal;font-size:18.9238px;-inkscape-font-specification:'Product Sans, Normal';letter-spacing:2.95684px;fill:#000000;stroke:#000000"
           id="path2617" />
        <path
           d="m 104.84253,220.1188 v -13.54944 h 4.90126 q 1.60853,0 2.76288,1.05973 1.15435,1.04081 1.15435,2.63041 0,2.00592 -1.83561,2.81965 v 0.0757 q 1.04081,0.34063 1.66529,1.1922 0.62449,0.83265 0.62449,1.9113 0,1.6653 -1.21112,2.76288 -1.17328,1.09758 -2.89534,1.09758 z m 1.74099,-11.88415 v 4.14432 h 3.16027 q 0.92727,0 1.55175,-0.62449 0.62449,-0.64341 0.62449,-1.45713 0,-0.7948 -0.60556,-1.43821 -0.60556,-0.62449 -1.49498,-0.62449 z m 0,5.77176 v 4.4471 h 3.5009 q 0.94619,0 1.60852,-0.66234 0.64341,-0.66233 0.64341,-1.57067 0,-0.88942 -0.66233,-1.55175 -0.66233,-0.66234 -1.66529,-0.66234 z"
           style="font-weight:normal;font-size:18.9238px;-inkscape-font-specification:'Product Sans, Normal';letter-spacing:2.95684px;fill:#000000;stroke:#000000"
           id="path2619" />
        <path
           d="m 126.64747,220.1188 h -7.60737 v -13.54944 h 1.74099 v 11.88415 h 5.86638 z"
           style="font-weight:normal;font-size:18.9238px;-inkscape-font-specification:'Product Sans, Normal';letter-spacing:2.95684px;fill:#000000;stroke:#000000"
           id="path2621" />
        <path
           d="m 144.40268,213.34408 q 0,3.00888 -2.00592,5.03373 -2.02485,2.04377 -4.95804,2.04377 -2.95211,0 -4.95803,-2.04377 -2.00592,-2.02485 -2.00592,-5.03373 0,-3.00888 2.00592,-5.03373 2.00592,-2.04377 4.95803,-2.04377 2.95212,0 4.95804,2.06269 2.00592,2.02485 2.00592,5.01481 z m -12.14908,0 q 0,2.34655 1.47606,3.87938 1.49498,1.53283 3.70906,1.53283 2.21409,0 3.69015,-1.53283 1.49498,-1.51391 1.49498,-3.87938 0,-2.36548 -1.49498,-3.87938 -1.47606,-1.53283 -3.69015,-1.53283 -2.21408,0 -3.70906,1.53283 -1.47606,1.53283 -1.47606,3.87938 z"
           style="font-weight:normal;font-size:18.9238px;-inkscape-font-specification:'Product Sans, Normal';letter-spacing:2.95684px;fill:#000000;stroke:#000000"
           id="path2623" />
        <path
           d="m 153.47188,208.23465 v 11.88415 h -1.74099 v -11.88415 h -3.78476 v -1.66529 h 9.31051 v 1.66529 z"
           style="font-weight:normal;font-size:18.9238px;-inkscape-font-specification:'Product Sans, Normal';letter-spacing:2.95684px;fill:#000000;stroke:#000000"
           id="path2625" />
        <path
           d="m 163.69192,219.09975 q 0,0.46022 -0.32873,0.78894 -0.31229,0.32873 -0.78894,0.32873 -0.46022,0 -0.78894,-0.32873 -0.32873,-0.32872 -0.32873,-0.78894 0,-0.47665 0.32873,-0.78894 0.32872,-0.32873 0.78894,-0.32873 0.47665,0 0.78894,0.32873 0.32873,0.31229 0.32873,0.78894 z"
           style="font-weight:normal;-inkscape-font-specification:'Product Sans, Normal';fill:#552200;fill-opacity:1"
           id="path2627" />
        <path
           d="m 169.083,220.38178 q -1.79155,0 -2.97497,-1.21629 -1.16697,-1.24915 -1.16697,-3.07358 0,-1.85731 1.16697,-3.07359 1.18342,-1.21629 2.97497,-1.21629 1.23273,0 2.15316,0.62458 0.92043,0.60814 1.38065,1.69294 l -1.38065,0.57527 q -0.64102,-1.51214 -2.25177,-1.51214 -1.03549,0 -1.79156,0.83825 -0.73964,0.83825 -0.73964,2.07098 0,1.23272 0.73964,2.07097 0.75607,0.83825 1.79156,0.83825 1.66006,0 2.33395,-1.51214 l 1.34778,0.57527 q -0.44378,1.0848 -1.39709,1.70938 -0.93687,0.60814 -2.18603,0.60814 z"
           style="font-weight:normal;-inkscape-font-specification:'Product Sans, Normal';fill:#552200;fill-opacity:1"
           id="path2629" />
        <path
           d="m 173.4386,216.09191 q 0,-1.85731 1.16698,-3.07359 1.18341,-1.21629 2.97497,-1.21629 1.79155,0 2.95853,1.21629 1.18341,1.21628 1.18341,3.07359 0,1.87373 -1.18341,3.07358 -1.16698,1.21629 -2.95853,1.21629 -1.79156,0 -2.97497,-1.21629 -1.16698,-1.21628 -1.16698,-3.07358 z m 1.51214,0 q 0,1.29846 0.75607,2.10384 0.75607,0.80538 1.87374,0.80538 1.11766,0 1.87373,-0.80538 0.75607,-0.80538 0.75607,-2.10384 0,-1.28204 -0.75607,-2.08741 -0.7725,-0.82182 -1.87373,-0.82182 -1.10124,0 -1.87374,0.82182 -0.75607,0.80537 -0.75607,2.08741 z"
           style="font-weight:normal;-inkscape-font-specification:'Product Sans, Normal';fill:#552200;fill-opacity:1"
           id="path2631" />
        <path
           d="m 184.4509,220.1188 h -1.51214 v -8.05379 h 1.4464 v 1.11767 h 0.0657 q 0.34516,-0.59171 1.05193,-0.98618 0.72319,-0.39447 1.42995,-0.39447 0.88756,0 1.56145,0.41091 0.67389,0.41091 0.98618,1.1341 1.00261,-1.54501 2.77773,-1.54501 1.39709,0 2.15316,0.85469 0.75607,0.85469 0.75607,2.43257 v 5.02951 h -1.51214 v -4.7994 q 0,-1.1341 -0.41091,-1.62719 -0.4109,-0.50953 -1.38065,-0.50953 -0.87112,0 -1.46283,0.73963 -0.5917,0.73964 -0.5917,1.74225 v 4.45424 h -1.5121 v -4.7994 q 0,-1.1341 -0.41091,-1.62719 -0.41091,-0.50953 -1.38065,-0.50953 -0.87112,0 -1.46283,0.73963 -0.59171,0.73964 -0.59171,1.74225 z"
           style="font-weight:normal;-inkscape-font-specification:'Product Sans, Normal';fill:#552200;fill-opacity:1"
           id="path2633" />
      </g>
    </g>
  </g>
</svg>
